<svg width="218" height="120" viewBox="0 0 218 120" fill="none" xmlns="http://www.w3.org/2000/svg">
<rect width="218" height="120" fill="#060606"/>
<g clip-path="url(#clip0_235_17135)">
<g clip-path="url(#clip1_235_17135)">
<path d="M48.6748 70.508C53.3589 70.508 55.1859 67.5635 55.1859 62.5256C55.1859 57.4889 53.0492 53.977 48.8121 53.977H44.0633V70.508H48.6748ZM39.0674 49.5789H49.4324C56.0116 49.5789 60.2488 55.0417 60.2488 62.5256C60.2488 66.64 58.9048 70.2594 56.3213 72.494C54.4953 74.0539 52.1181 74.9412 49.0185 74.9412H39.0674V49.5789ZM74.5172 65.8612C74.5172 62.3131 72.8988 59.901 70.0396 59.901C67.1453 59.901 65.5598 62.3131 65.5598 65.8612C65.5598 69.4082 67.1453 71.7842 70.0396 71.7842C72.8988 71.7842 74.5172 69.4082 74.5172 65.8612ZM60.8066 65.8612C60.8066 60.4334 64.5617 56.2478 70.0396 56.2478C75.5164 56.2478 79.2715 60.4334 79.2715 65.8612C79.2715 71.2868 75.5164 75.4736 70.0396 75.4736C64.5606 75.4736 60.8066 71.288 60.8066 65.8612ZM80.0456 65.8612C80.0456 60.4334 83.4911 56.2478 88.8647 56.2478C93.4477 56.2478 96.2718 58.9798 96.8921 62.9167H92.3102C92.0006 61.3207 90.795 60.1135 89.0722 60.1135C86.2471 60.1135 84.801 62.3493 84.801 65.8612C84.801 69.302 86.1439 71.6078 89.003 71.6078C90.8982 71.6078 92.2421 70.5792 92.5518 68.522H97.0645C96.7549 72.3878 93.8254 75.4736 89.1063 75.4736C83.5262 75.4736 80.0456 71.288 80.0456 65.8612ZM109.263 74.9423V72.8139H109.16C107.954 74.4811 106.576 75.4385 104.096 75.4385C100.169 75.4385 97.9638 72.8501 97.9638 68.8758V56.744H102.614V68.0597C102.614 70.1881 103.545 71.3592 105.542 71.3592C107.747 71.3592 109.091 69.6569 109.091 67.2448V56.744H113.776V74.9423H109.263ZM136.602 74.9423H141.286V56.744H136.602V74.9423ZM136.602 54.2008H141.286V49.6908H136.602V54.2008ZM155.597 65.044C155.597 62.3844 154.219 60.1147 151.394 60.1147C149.017 60.1147 147.433 62.0294 147.433 65.0802C147.433 68.166 149.017 69.9756 151.429 69.9756C154.392 69.9756 155.597 67.7399 155.597 65.044ZM143.23 75.4736H147.879C148.258 76.6084 149.257 77.4957 151.427 77.4957C154.08 77.4957 155.355 76.1834 155.355 73.7001V71.713H155.252C154.217 72.919 152.874 73.8414 150.635 73.8414C146.708 73.8414 142.85 70.6493 142.85 65.1514C142.85 59.7236 146.019 56.2478 150.497 56.2478C152.702 56.2478 154.32 57.134 155.389 58.6599H155.458V56.744H159.971V73.5577C159.971 76.1122 159.178 77.8495 157.869 79.0917C156.387 80.5103 154.114 81.1489 151.496 81.1489C146.673 81.1489 143.712 79.0205 143.23 75.4736ZM166.563 59.2273H166.666C167.872 57.2764 169.491 56.2478 171.903 56.2478C175.555 56.2478 178 59.0849 178 63.058V74.9412H173.315V63.7679C173.315 61.8169 172.212 60.4334 170.249 60.4334C168.182 60.4334 166.666 62.1357 166.666 64.619V74.9412H161.981V56.744H166.563V59.2273ZM125.925 59.6523C122.273 58.8385 120.551 58.2349 120.551 56.1766C120.551 54.3681 122.307 53.197 124.995 53.197C127.447 53.197 129.321 54.3816 129.706 56.744H134.51C134.022 51.8192 130.472 49.1177 125.029 49.1177C119.553 49.1177 115.59 51.7073 115.59 56.709C115.59 61.9944 119.621 63.2004 124.03 64.229C127.785 65.1164 130.128 65.6126 130.128 68.0948C130.128 70.4368 127.888 71.3592 125.34 71.3592C121.826 71.3592 120.138 70.1531 119.793 67.1023H114.901C115.074 72.459 118.863 75.5086 125.546 75.5086C131.092 75.5086 135.123 72.6364 135.123 67.4923C135.123 62.0294 130.989 60.7883 125.925 59.6523Z" fill="white"/>
</g>
</g>
<defs>
<clipPath id="clip0_235_17135">
<rect width="138" height="56" fill="white" transform="translate(40 32)"/>
</clipPath>
<clipPath id="clip1_235_17135">
<rect width="138.932" height="32.6667" fill="white" transform="translate(39.0674 48.8)"/>
</clipPath>
</defs>
</svg>
