<svg width="218" height="120" viewBox="0 0 218 120" fill="none" xmlns="http://www.w3.org/2000/svg">
<rect width="218" height="120" fill="#F2F2F2"/>
<path d="M84.3876 81.3817H93.4508V59.3688L80.5 49.6443V77.4941C80.5 79.6494 82.2445 81.3817 84.3876 81.3817Z" fill="#4285F4"/>
<path d="M124.55 81.3817H133.613C135.756 81.3817 137.501 79.6372 137.501 77.4941V49.6443L124.55 59.3566V81.3817Z" fill="#34A853"/>
<path d="M124.55 42.5193V59.3566L137.501 49.6443V44.4575C137.501 39.6582 132.018 36.9106 128.176 39.7951L124.55 42.5193Z" fill="#FBBC04"/>
<path d="M93.4502 59.3688V42.5193L108.999 54.182L124.549 42.5193V59.3688L108.999 71.0193L93.4502 59.3688Z" fill="#EA4335"/>
<path d="M80.5 44.4695V49.6563L93.4508 59.3685V42.5201L89.8248 39.8071C85.9829 36.9226 80.5 39.6701 80.5 44.4695Z" fill="#C5221F"/>
</svg>
