<svg width="218" height="120" viewBox="0 0 218 120" fill="none" xmlns="http://www.w3.org/2000/svg">
<rect width="218" height="120" fill="#A93839"/>
<g clip-path="url(#clip0_235_14568)">
<path d="M142.408 58.0011C140.626 54.9589 138.083 52.4327 135.029 50.6706C132.697 49.3156 130.286 48.455 127.564 48.0827V38.3352C128.884 37.7882 130.01 36.8577 130.796 35.664C131.581 34.4704 131.991 33.0684 131.971 31.6396C131.976 30.6747 131.79 29.7183 131.424 28.8254C131.058 27.9326 130.519 27.1208 129.839 26.4368C129.158 25.7528 128.349 25.21 127.458 24.8396C126.567 24.4693 125.611 24.2786 124.647 24.2786C122.692 24.2786 120.817 25.0534 119.433 26.4331C118.049 27.8129 117.268 29.6851 117.261 31.6396C117.261 34.6303 118.848 37.1817 121.576 38.3352V48.0278C119.316 48.3548 117.124 49.0431 115.082 50.0664L88.9893 30.309C89.1724 29.6193 89.3311 28.9052 89.3311 28.1544C89.3311 23.65 85.6811 20 81.1766 20C76.6722 20 73.0283 23.65 73.0283 28.1544C73.0283 32.6589 76.6783 36.3088 81.1827 36.3088C82.7209 36.3088 84.143 35.8572 85.3698 35.1186L87.0788 36.4126L110.486 53.2891C109.247 54.4244 108.094 55.7183 107.172 57.171C105.304 60.1312 104.163 63.3844 104.163 66.9368V67.6692C104.171 70.0783 104.605 72.4669 105.445 74.725C106.153 76.6537 107.19 78.4115 108.478 79.9985L100.702 87.7928C98.401 86.9383 95.8192 87.5059 94.0797 89.2454C92.8956 90.4234 92.2303 92.0287 92.2364 93.7011C92.2425 95.3735 92.8956 96.9665 94.0858 98.1567C95.276 99.3469 96.869 100.006 98.5414 100.006C100.214 100.006 101.819 99.3469 102.997 98.1567C104.175 96.9665 104.846 95.3735 104.84 93.7011C104.84 93.0591 104.741 92.421 104.547 91.809L112.58 83.7766C113.678 84.5396 114.869 85.1804 116.15 85.7298C118.785 86.8852 121.63 87.4837 124.506 87.4876H125.055C128.425 87.4876 131.605 86.6941 134.589 85.0767C137.657 83.4316 140.235 81.0035 142.06 78.0392C143.934 75.0484 144.959 71.7342 144.959 68.0903V67.9072C144.959 64.3244 144.129 61.0224 142.396 57.995L142.408 58.0011ZM132.6 74.8592C130.421 77.2824 127.912 78.7778 125.08 78.7778H124.543C122.925 78.7778 121.338 78.3322 119.794 77.5143C118.101 76.6338 116.666 75.3275 115.632 73.724C114.508 72.137 113.898 70.4036 113.898 68.5664V68.0171C113.898 66.2104 114.246 64.4953 115.119 62.8778C116.053 61.0468 117.316 59.7345 118.995 58.6419C120.673 57.5494 122.4 57.0245 124.366 57.0245H124.549C126.319 57.0245 128.01 57.3724 129.597 58.1842C131.204 59.0297 132.57 60.2712 133.564 61.7914C134.548 63.3159 135.157 65.0521 135.34 66.8574L135.383 67.9988C135.383 70.4829 134.431 72.784 132.532 74.8714L132.6 74.8592Z" fill="#F8761F"/>
</g>
<defs>
<clipPath id="clip0_235_14568">
<rect width="80" height="80" fill="white" transform="translate(69 20)"/>
</clipPath>
</defs>
</svg>
