<svg width="218" height="120" viewBox="0 0 218 120" fill="none" xmlns="http://www.w3.org/2000/svg">
<rect width="218" height="120" fill="#BDDEF3"/>
<path d="M135.103 29.375H98.0142C97.2109 29.375 96.4405 29.6986 95.8725 30.2745C95.3045 30.8505 94.9854 31.6317 94.9854 32.4463V35.9375L115.89 42.5L138.131 35.9375V32.4463C138.131 31.6317 137.812 30.8505 137.244 30.2745C136.676 29.6986 135.906 29.375 135.103 29.375Z" fill="#0364B8"/>
<path d="M141.691 63.0735C142.007 62.0663 142.259 61.0398 142.446 60C142.446 59.7446 142.379 59.4937 142.253 59.2726C142.127 59.0514 141.946 58.8678 141.728 58.74L141.7 58.7225L141.691 58.7182L118.31 45.2125C118.209 45.1462 118.105 45.0855 117.997 45.031C117.55 44.8059 117.058 44.6887 116.559 44.6887C116.059 44.6887 115.567 44.8059 115.12 45.031C115.012 45.0848 114.908 45.1447 114.807 45.2103L91.426 58.7203L91.4173 58.7247L91.3914 58.74C91.1729 58.8675 90.9912 59.051 90.8647 59.2722C90.7383 59.4933 90.6714 59.7444 90.6709 60C90.8578 61.0398 91.11 62.0663 91.426 63.0735L116.218 81.4594L141.691 63.0735Z" fill="#0A2767"/>
<path d="M125.188 35.9375H110.086L105.727 42.5L110.086 49.0625L125.188 62.1875H138.131V49.0625L125.188 35.9375Z" fill="#28A8EA"/>
<path d="M94.9854 35.9375H110.086V49.0625H94.9854V35.9375Z" fill="#0078D4"/>
<path d="M125.188 35.9375H138.131V49.0625H125.188V35.9375Z" fill="#50D9FF"/>
<path d="M125.188 62.1875L110.086 49.0625H94.9854V62.1875L110.086 75.3125L133.454 79.18L125.188 62.1875Z" fill="#0364B8"/>
<path d="M110.087 49.0625H125.188V62.1875H110.087V49.0625Z" fill="#0078D4"/>
<path d="M94.9854 62.1875H110.086V75.3125H94.9854V62.1875Z" fill="#064A8C"/>
<path d="M125.188 62.1875H138.131V75.3125H125.188V62.1875Z" fill="#0078D4"/>
<path opacity="0.5" d="M116.968 80.1643L91.5273 61.3518L92.5952 59.4487C92.5952 59.4487 115.775 72.8362 116.129 73.0374C116.274 73.0962 116.429 73.1241 116.585 73.1196C116.741 73.1151 116.894 73.0782 117.035 73.0112L140.621 59.3831L141.691 61.284L116.968 80.1643Z" fill="#0A2767"/>
<path d="M141.728 61.2622L141.698 61.2797L141.692 61.2841L118.311 74.7897C117.846 75.0933 117.313 75.271 116.762 75.3059C116.21 75.3407 115.659 75.2315 115.161 74.9887L123.303 86.0597L141.109 89.9906V89.9994C141.523 89.6956 141.861 89.2964 142.093 88.8348C142.326 88.3731 142.447 87.8621 142.447 87.3438V60C142.447 60.2558 142.38 60.5071 142.254 60.7287C142.128 60.9503 141.947 61.1343 141.728 61.2622Z" fill="#1490DF"/>
<path opacity="0.05" d="M142.447 87.3437V85.7294L120.91 73.2869L118.311 74.7897C117.846 75.0933 117.313 75.271 116.762 75.3059C116.21 75.3407 115.659 75.2315 115.161 74.9887L123.303 86.0597L141.109 89.9906V89.9994C141.523 89.6955 141.861 89.2964 142.093 88.8348C142.326 88.3731 142.447 87.8621 142.447 87.3437Z" fill="black"/>
<path opacity="0.1" d="M142.339 88.1816L118.731 74.5469L118.311 74.7875C117.847 75.0915 117.313 75.2696 116.762 75.3048C116.21 75.34 115.659 75.2312 115.161 74.9887L123.303 86.0597L141.109 89.9906V89.9994C141.713 89.5558 142.147 88.9145 142.339 88.1838V88.1816Z" fill="black"/>
<path d="M91.426 61.2906V61.2687H91.4044L91.3397 61.225C91.1335 61.0967 90.9635 60.9164 90.8463 60.7018C90.7291 60.4871 90.6687 60.2453 90.671 60V87.3438C90.6704 87.7748 90.7537 88.2018 90.9161 88.6001C91.0785 88.9985 91.3169 89.3604 91.6175 89.6652C91.9181 89.97 92.275 90.2117 92.6679 90.3764C93.0608 90.5411 93.4818 90.6256 93.9069 90.625H139.21C139.48 90.6223 139.748 90.5856 140.008 90.5156C140.144 90.4918 140.274 90.4475 140.397 90.3844C140.443 90.3798 140.487 90.3649 140.526 90.3406C140.703 90.2674 140.869 90.1719 141.022 90.0563C141.065 90.0344 141.087 90.0344 141.109 89.9906L91.426 61.2906Z" fill="#28A8EA"/>
<path opacity="0.1" d="M112.244 78.9591V43.2284C112.242 42.4558 111.938 41.7155 111.399 41.1691C110.86 40.6228 110.13 40.3148 109.368 40.3125H95.0502V56.6225L91.426 58.7181L91.4152 58.7225L91.3893 58.7378C91.1708 58.8657 90.9894 59.0497 90.8633 59.2713C90.7372 59.4928 90.6708 59.7442 90.6709 60V81.875H109.368C110.13 81.8727 110.86 81.5647 111.399 81.0184C111.938 80.472 112.242 79.7317 112.244 78.9591Z" fill="black"/>
<path opacity="0.2" d="M110.087 81.1466V45.4159C110.084 44.6433 109.781 43.903 109.242 43.3566C108.703 42.8103 107.973 42.5023 107.211 42.5H95.0502V56.6225L91.426 58.7181L91.4152 58.7225L91.3893 58.7378C91.1708 58.8657 90.9894 59.0497 90.8633 59.2713C90.7372 59.4928 90.6708 59.7442 90.6709 60V84.0625H107.211C107.973 84.0602 108.703 83.7522 109.242 83.2059C109.781 82.6595 110.084 81.9192 110.087 81.1466Z" fill="black"/>
<path opacity="0.2" d="M110.087 76.7716V45.4159C110.084 44.6433 109.781 43.903 109.242 43.3566C108.703 42.8103 107.973 42.5023 107.211 42.5H95.0502V56.6225L91.426 58.7181L91.4152 58.7225L91.3893 58.7378C91.1708 58.8657 90.9894 59.0497 90.8633 59.2713C90.7372 59.4928 90.6708 59.7442 90.6709 60V79.6875H107.211C107.973 79.6852 108.703 79.3772 109.242 78.8309C109.781 78.2845 110.084 77.5442 110.087 76.7716Z" fill="black"/>
<path opacity="0.2" d="M107.929 76.7716V45.4159C107.927 44.6433 107.623 43.903 107.085 43.3566C106.546 42.8103 105.816 42.5023 105.054 42.5H95.0502V56.6225L91.426 58.7181L91.4152 58.7225L91.3893 58.7378C91.1708 58.8657 90.9894 59.0497 90.8633 59.2713C90.7372 59.4928 90.6708 59.7442 90.6709 60V79.6875H105.054C105.816 79.6852 106.546 79.3772 107.085 78.8309C107.623 78.2845 107.927 77.5442 107.929 76.7716Z" fill="black"/>
<path d="M76.2888 42.5H105.054C105.817 42.5 106.548 42.8072 107.088 43.3541C107.627 43.9009 107.93 44.6426 107.93 45.4159V74.5841C107.93 75.3574 107.627 76.0991 107.088 76.6459C106.548 77.1928 105.817 77.5 105.054 77.5H76.2888C75.5261 77.5 74.7946 77.1928 74.2554 76.6459C73.7161 76.0991 73.4131 75.3574 73.4131 74.5841V45.4159C73.4131 44.6426 73.7161 43.9009 74.2554 43.3541C74.7946 42.8072 75.5261 42.5 76.2888 42.5Z" fill="#0078D4"/>
<path d="M81.7546 54.4611C82.5187 52.8099 83.7523 51.428 85.2969 50.493C87.0081 49.4997 88.9565 49.0047 90.9274 49.0624C92.7524 49.0222 94.5532 49.4914 96.133 50.4186C97.6201 51.3168 98.8178 52.6339 99.5804 54.2096C100.411 55.9464 100.825 57.8578 100.788 59.7877C100.828 61.8036 100.402 63.8009 99.5437 65.6196C98.7645 67.2513 97.5308 68.6157 95.9949 69.544C94.3531 70.5007 92.484 70.9827 90.5909 70.9374C88.7259 70.9824 86.8844 70.508 85.2667 69.5658C83.7677 68.6662 82.5559 67.3478 81.7762 65.7683C80.9398 64.0572 80.5203 62.1675 80.553 60.258C80.5168 58.2585 80.9276 56.2767 81.7546 54.4611ZM85.5299 63.7755C85.9369 64.8194 86.6273 65.725 87.5211 66.3874C88.4318 67.0337 89.5228 67.3672 90.634 67.339C91.8179 67.3856 92.9846 67.0409 93.9584 66.3568C94.8422 65.6947 95.515 64.7843 95.8935 63.7383C96.3179 62.573 96.5271 61.3383 96.5105 60.0961C96.5237 58.8422 96.3267 57.5951 95.9281 56.408C95.5763 55.3401 94.9275 54.3981 94.0598 53.6955C93.1117 52.977 91.9483 52.6116 90.7656 52.6608C89.6302 52.6317 88.5148 52.9679 87.5793 53.6211C86.668 54.2847 85.9617 55.1974 85.5428 56.2527C84.6162 58.6721 84.6108 61.3545 85.5277 63.7777L85.5299 63.7755Z" fill="white"/>
</svg>
