<svg width="218" height="120" viewBox="0 0 218 120" fill="none" xmlns="http://www.w3.org/2000/svg">
<rect width="218" height="120" fill="#007753"/>
<path d="M167.998 56.5738C167.998 51.5366 164.103 42.1365 151.501 42.0979C146.036 42.0818 141.917 44.5017 140.023 46.0952V42.5212L131.595 42.5172V46.0952C129.53 44.3056 127.021 42.6914 124.496 42.3101C121.812 41.9041 119.128 42.0247 115.808 43.0287C113.048 43.8633 111.289 45.0957 109.585 47.0243C106.067 43.0749 100.507 42.2859 96.0765 42.1239C91.0329 41.9399 85.9462 42.5639 81.984 45.4677C78.1648 43.5092 73.3362 41.9704 67.9789 42.0004C63.268 42.0275 58.753 43.0928 55.5567 45.8628C54.4029 46.8617 53.8858 47.6553 53.3147 49.0723C52.1828 51.8792 52.6539 55.121 53.9157 56.8131C56.2691 59.969 58.9053 61.1945 63.6386 61.728C67.7967 62.1969 70.7104 62.1981 73.7855 62.7667C75.2391 63.0355 76.5739 64.1145 76.5739 65.7138C76.5739 67.5789 73.9728 70.6379 67.6904 70.2278C62.4578 69.8858 60.4796 69.1465 55.5584 65.9353L50 70.4412C50 70.4412 50.9475 71.2002 51.5939 71.627C52.2224 72.041 52.8686 72.4272 53.5307 72.7845H53.5468C59.1517 75.8181 66.2454 77.0863 72.6645 76.0557C75.8143 75.5487 78.8038 74.4893 81.3732 72.8127C83.4515 74.239 86.1973 76.6832 92.8451 76.3827C97.0291 76.1935 100.135 76.3452 103.041 72.9944V76.3429H111.18L111.178 72.9944C111.178 72.9944 112.461 74.036 113.364 74.5781C118.533 77.6901 126.756 76.5125 131.617 72.8018L131.629 77.133C131.49 79.8056 129.043 81.635 126.471 82.6644C122.029 84.4431 117.983 82.8484 114.369 80.2935L108.203 84.4304C109.867 86.1023 111.39 87.0799 113.762 88.1693C120.432 91.2329 128.236 90.1879 133.621 86.9835C137.173 84.8704 138.545 82.2803 139.402 78.2969C139.858 76.1791 139.902 74.6294 139.972 72.7764C139.974 72.7222 139.974 72.6738 139.977 72.6265L140.19 72.7764C141.906 73.9783 143.426 74.8694 145.749 75.5776C149.499 76.7195 153.766 76.7714 158.529 75.5257C160.744 74.9432 162.701 74.0164 164.449 72.7747H164.453C165.405 72.0918 166.296 71.3262 167.115 70.4868L161.795 66.689C159.992 68.1643 157.31 69.6523 154.253 70.0398C150.723 70.4868 146.72 69.8484 144.551 67.4907C143.379 66.2167 142.971 65.8164 142.971 62.5885L168 62.6162L167.998 56.5738ZM114.702 58.9182C114.77 57.0629 114.945 55.0789 115.144 53.1301C115.24 52.1797 116.384 51.0309 117.994 50.1508C119.455 49.352 121.3 48.7741 123.091 48.7649C124.453 48.7574 125.852 49.0163 127.088 49.4944C129.245 50.3261 130.917 51.8239 131.09 53.7392C131.248 55.5236 131.434 57.2111 131.516 58.8276C131.62 60.8479 131.571 62.7586 131.132 64.6111C130.852 65.7911 130.267 66.7923 129.062 67.7502C127.7 68.8316 125.59 69.7924 123.089 69.6523C119.589 69.4556 116.462 68.0651 115.535 66.121C114.76 64.4836 114.597 61.8636 114.702 58.9182ZM99.8457 69.7261C98.1013 70.2734 95.3106 70.5531 92.3412 70.1938C89.87 69.8951 87.5171 69.7197 86.5553 67.4924C86.0347 66.2859 86.1427 65.178 86.954 64.1468C88.2284 62.5274 91.1794 62.213 92.9485 62.1946H102.642C102.9 64.7276 103.709 68.5138 99.8457 69.7261ZM71.0563 55.8967C67.1699 55.6885 63.5949 55.613 61.6529 54.0541C60.5365 53.1561 60.7565 50.5735 62.3234 49.6375C64.578 48.2914 67.3043 48.3364 68.8758 48.4183C72.0577 48.5832 75.7223 49.6271 78.6078 51.5545L81.9852 48.4183C81.9852 48.4183 85.5492 51.6947 85.5492 51.5545C89.7051 48.6507 91.172 48.6432 95.0434 48.6467C100.338 48.6507 101.858 49.6825 102.636 50.8492C103.128 51.5857 102.643 56.0824 102.643 56.0824C102.643 56.0824 97.9685 56.2266 94.5975 56.057C91.9195 55.9227 90.4204 55.9123 87.7263 56.3535C85.3188 56.748 83.6635 57.4539 81.9852 58.849C81.9852 58.849 80.5493 57.842 78.9836 57.124C76.1383 55.8183 74.1026 56.0599 71.0563 55.8967ZM143.164 56.4798C143.164 54.4532 143.693 52.8326 144.564 51.5718C146.303 49.0579 149.406 47.98 152.388 47.9863C155.323 47.9926 158.349 49.0504 160.15 51.3544C161.167 52.6543 161.792 54.3511 161.792 56.4798H143.164Z" fill="white"/>
</svg>
