<svg width="218" height="120" viewBox="0 0 218 120" fill="none" xmlns="http://www.w3.org/2000/svg">
<rect width="218" height="120" fill="#00A1E0"/>
<g clip-path="url(#clip0_235_1763)">
<path d="M99.6167 29.1602C103.225 25.3729 108.249 23.024 113.805 23.024C121.191 23.024 127.635 27.1726 131.066 33.3313C134.049 31.9891 137.349 31.2425 140.822 31.2425C154.144 31.2425 164.944 42.216 164.944 55.7519C164.944 69.2894 154.144 80.2629 140.822 80.2629C139.197 80.2629 137.608 80.0991 136.071 79.786C133.049 85.2158 127.291 88.8843 120.681 88.8843C117.914 88.8843 115.297 88.2405 112.967 87.0958C109.903 94.3542 102.766 99.4436 94.4478 99.4436C85.7853 99.4436 78.4026 93.9223 75.5687 86.1791C74.3303 86.444 73.0473 86.582 71.7308 86.582C61.417 86.582 53.0557 78.073 53.0557 67.5747C53.0557 60.5395 56.8124 54.3969 62.394 51.1104C61.2448 48.4469 60.6057 45.5073 60.6057 42.4167C60.6057 30.3435 70.3361 20.5564 82.3378 20.5564C89.3842 20.5564 95.6464 23.9311 99.6167 29.1602Z" fill="white"/>
<path d="M69.2616 61.4654C69.1915 61.65 69.2871 61.6885 69.3094 61.7206C69.5198 61.8748 69.7334 61.9855 69.9486 62.1092C71.0898 62.7193 72.1672 62.8975 73.294 62.8975C75.5892 62.8975 77.0141 61.6677 77.0141 59.6881V59.6496C77.0141 57.8193 75.4059 57.1546 73.8965 56.6746L73.7005 56.6104C72.5625 56.2379 71.5807 55.9168 71.5807 55.1622V55.1221C71.5807 54.4767 72.1544 54.0015 73.0438 54.0015C74.032 54.0015 75.2051 54.3322 75.9606 54.7528C75.9606 54.7528 76.1821 54.8973 76.2634 54.6806C76.308 54.565 76.6905 53.5278 76.7304 53.4155C76.7734 53.2934 76.6969 53.2035 76.6188 53.1554C75.7565 52.6272 74.5643 52.2659 73.3307 52.2659L73.1012 52.2675C71.0005 52.2675 69.5342 53.5455 69.5342 55.3774V55.4159C69.5342 57.3473 71.1519 57.9734 72.6677 58.4101L72.9115 58.4856C74.0161 58.8276 74.9676 59.1214 74.9676 59.9048V59.9434C74.9676 60.6594 74.3492 61.1924 73.3514 61.1924C72.9641 61.1924 71.7289 61.1844 70.3948 60.3351C70.2339 60.2404 70.1398 60.1713 70.0155 60.0959C69.9502 60.0541 69.786 59.9819 69.7143 60.2002L69.2616 61.4654Z" fill="#00A1E0"/>
<path d="M102.861 61.4654C102.791 61.65 102.887 61.6885 102.909 61.7206C103.119 61.8748 103.333 61.9855 103.548 62.1092C104.689 62.7193 105.767 62.8975 106.894 62.8975C109.189 62.8975 110.614 61.6677 110.614 59.6881V59.6496C110.614 57.8193 109.006 57.1546 107.496 56.6746L107.3 56.6104C106.162 56.2379 105.18 55.9168 105.18 55.1622V55.1221C105.18 54.4767 105.754 54.0015 106.643 54.0015C107.632 54.0015 108.805 54.3322 109.56 54.7528C109.56 54.7528 109.782 54.8973 109.863 54.6806C109.908 54.565 110.29 53.5278 110.33 53.4155C110.373 53.2934 110.297 53.2035 110.218 53.1554C109.356 52.6272 108.164 52.2659 106.93 52.2659L106.701 52.2675C104.6 52.2675 103.134 53.5455 103.134 55.3774V55.4159C103.134 57.3473 104.752 57.9734 106.267 58.4101L106.511 58.4856C107.616 58.8276 108.569 59.1214 108.569 59.9048V59.9434C108.569 60.6594 107.949 61.1924 106.951 61.1924C106.564 61.1924 105.328 61.1844 103.994 60.3351C103.833 60.2404 103.738 60.1746 103.617 60.0959C103.575 60.0686 103.381 59.9931 103.314 60.2002L102.861 61.4654Z" fill="#00A1E0"/>
<path d="M125.799 57.5877C125.799 58.7067 125.592 59.5881 125.184 60.2111C124.781 60.8276 124.17 61.1278 123.319 61.1278C122.466 61.1278 121.859 60.8292 121.462 60.2111C121.061 59.5897 120.857 58.7067 120.857 57.5877C120.857 56.4703 121.061 55.5905 121.462 54.974C121.859 54.3639 122.466 54.0669 123.319 54.0669C124.17 54.0669 124.781 54.3639 125.186 54.974C125.592 55.5905 125.799 56.4703 125.799 57.5877ZM127.715 55.5134C127.527 54.8728 127.234 54.3077 126.843 53.8373C126.453 53.3653 125.959 52.9864 125.372 52.7102C124.787 52.4357 124.095 52.296 123.319 52.296C122.541 52.296 121.85 52.4357 121.265 52.7102C120.678 52.9864 120.184 53.3653 119.792 53.8373C119.403 54.3093 119.11 54.8744 118.92 55.5134C118.734 56.1508 118.64 56.8476 118.64 57.5877C118.64 58.3278 118.734 59.0262 118.92 59.662C119.11 60.301 119.402 60.8661 119.794 61.3381C120.184 61.8101 120.68 62.1874 121.265 62.4555C121.851 62.7236 122.541 62.8601 123.319 62.8601C124.095 62.8601 124.786 62.7236 125.372 62.4555C125.957 62.1874 126.453 61.8101 126.843 61.3381C127.234 60.8677 127.527 60.3026 127.715 59.662C127.903 59.0246 127.997 58.3262 127.997 57.5877C127.997 56.8492 127.903 56.1508 127.715 55.5134Z" fill="#00A1E0"/>
<path fill-rule="evenodd" clip-rule="evenodd" d="M143.447 60.8291C143.383 60.6413 143.203 60.7119 143.203 60.7119C142.924 60.8195 142.628 60.919 142.312 60.9688C141.992 61.0185 141.64 61.0442 141.262 61.0442C140.334 61.0442 139.598 60.7665 139.071 60.2174C138.541 59.6683 138.245 58.7805 138.248 57.5796C138.251 56.4863 138.513 55.6643 138.983 55.0381C139.45 54.4152 140.161 54.0957 141.109 54.0957C141.9 54.0957 142.502 54.1872 143.133 54.3879C143.133 54.3879 143.285 54.4537 143.356 54.2546C143.524 53.7858 143.648 53.4503 143.827 52.9349C143.878 52.7888 143.753 52.7262 143.709 52.7086C143.46 52.6106 142.873 52.4517 142.43 52.3842C142.016 52.32 141.531 52.2863 140.993 52.2863C140.188 52.2863 139.471 52.4244 138.857 52.7005C138.245 52.9751 137.725 53.354 137.314 53.826C136.903 54.298 136.591 54.8631 136.382 55.5021C136.175 56.1395 136.069 56.8395 136.069 57.5796C136.069 59.1803 136.498 60.4743 137.344 61.4215C138.192 62.372 139.466 62.8552 141.127 62.8552C142.108 62.8552 143.116 62.6545 143.839 62.3672C143.839 62.3672 143.978 62.2997 143.917 62.1376L143.447 60.8291Z" fill="#00A1E0"/>
<path fill-rule="evenodd" clip-rule="evenodd" d="M146.8 56.5158C146.891 55.8945 147.061 55.3775 147.324 54.9745C147.721 54.3628 148.327 54.0273 149.178 54.0273C150.029 54.0273 150.591 54.3644 150.995 54.9745C151.262 55.3775 151.379 55.917 151.425 56.5158H146.8ZM153.25 55.1495C153.087 54.5314 152.684 53.9069 152.42 53.6211C152.002 53.1684 151.594 52.8521 151.189 52.6755C150.66 52.4475 150.026 52.2966 149.331 52.2966C148.521 52.2966 147.786 52.433 147.19 52.7156C146.592 52.9982 146.09 53.3835 145.697 53.8635C145.303 54.342 145.007 54.9119 144.819 55.5589C144.629 56.2027 144.533 56.9043 144.533 57.6445C144.533 58.3974 144.632 59.099 144.828 59.73C145.026 60.3658 145.341 60.9261 145.768 61.3901C146.194 61.8573 146.742 62.2233 147.399 62.4786C148.051 62.7322 148.843 62.8639 149.753 62.8623C151.626 62.8559 152.612 62.4352 153.019 62.2089C153.091 62.1687 153.159 62.0981 153.073 61.8958L152.649 60.6997C152.585 60.5215 152.405 60.5873 152.405 60.5873C151.941 60.7607 151.282 61.0722 149.743 61.069C148.738 61.0674 147.992 60.7687 147.525 60.3015C147.045 59.8231 146.811 59.1199 146.769 58.1277L153.255 58.1341C153.255 58.1341 153.425 58.1309 153.443 57.9639C153.449 57.8933 153.666 56.6218 153.25 55.1495Z" fill="#00A1E0"/>
<path fill-rule="evenodd" clip-rule="evenodd" d="M94.8612 56.5158C94.9536 55.8945 95.1226 55.3775 95.3856 54.9745C95.7824 54.3628 96.3881 54.0273 97.2392 54.0273C98.0903 54.0273 98.6529 54.3644 99.0578 54.9745C99.3239 55.3775 99.4403 55.917 99.4865 56.5158H94.8612ZM101.31 55.1495C101.147 54.5314 100.746 53.9069 100.481 53.6211C100.063 53.1684 99.6555 52.8521 99.2506 52.6755C98.7215 52.4475 98.0871 52.2966 97.3922 52.2966C96.5841 52.2966 95.8478 52.433 95.2517 52.7156C94.654 52.9982 94.1519 53.3835 93.7582 53.8635C93.3646 54.342 93.0681 54.9119 92.88 55.5589C92.692 56.2027 92.5947 56.9043 92.5947 57.6445C92.5947 58.3974 92.6935 59.099 92.8896 59.73C93.0872 60.3658 93.4028 60.9261 93.83 61.3901C94.2555 61.8573 94.8038 62.2233 95.4605 62.4786C96.1123 62.7322 96.9045 62.8639 97.8146 62.8623C99.6873 62.8559 100.674 62.4352 101.08 62.2089C101.152 62.1687 101.221 62.0981 101.135 61.8958L100.712 60.6997C100.647 60.5215 100.467 60.5873 100.467 60.5873C100.003 60.7607 99.3447 61.0722 97.8034 61.069C96.7993 61.0674 96.0534 60.7687 95.5864 60.3015C95.1066 59.8231 94.8723 59.1199 94.8309 58.1277L101.316 58.1341C101.316 58.1341 101.487 58.1309 101.504 57.9639C101.511 57.8933 101.727 56.6218 101.31 55.1495Z" fill="#00A1E0"/>
<path d="M80.8425 60.7932C80.5891 60.5893 80.5541 60.5379 80.468 60.4063C80.3405 60.2056 80.2751 59.9198 80.2751 59.557C80.2751 58.9822 80.4632 58.5696 80.8537 58.2919C80.8489 58.2935 81.4115 57.8022 82.7344 57.8199C83.6637 57.8327 84.494 57.9708 84.494 57.9708V60.9409H84.4956C84.4956 60.9409 83.6716 61.1191 82.744 61.1753C81.4243 61.2556 80.8378 60.7916 80.8425 60.7932ZM83.423 56.2031C83.16 56.1839 82.8189 56.1726 82.4109 56.1726C81.8546 56.1726 81.3175 56.2433 80.8139 56.3797C80.307 56.5162 79.8512 56.7297 79.4591 57.0123C79.0654 57.2965 78.7482 57.6593 78.5187 58.0896C78.2892 58.5198 78.1729 59.0272 78.1729 59.5955C78.1729 60.1735 78.2717 60.676 78.4693 61.087C78.6669 61.4996 78.9522 61.8432 79.3156 62.1081C79.6758 62.373 80.1205 62.5673 80.6369 62.6845C81.1454 62.8017 81.7223 62.8611 82.3535 62.8611C83.0181 62.8611 83.6812 62.8065 84.3235 62.6957C84.9594 62.5865 85.7404 62.4276 85.9572 62.3778C86.1724 62.3265 86.4114 62.2606 86.4114 62.2606C86.5724 62.2205 86.5597 62.0471 86.5597 62.0471L86.5565 56.0731C86.5565 54.763 86.209 53.7917 85.5253 53.1896C84.8447 52.5892 83.8422 52.2857 82.5464 52.2857C82.0602 52.2857 81.2777 52.3532 80.8091 52.4479C80.8091 52.4479 79.3921 52.724 78.8088 53.1832C78.8088 53.1832 78.6813 53.2635 78.7514 53.4433L79.2104 54.6859C79.2678 54.8465 79.4224 54.7919 79.4224 54.7919C79.4224 54.7919 79.4718 54.7726 79.5292 54.7389C80.7772 54.055 82.3551 54.0759 82.3551 54.0759C83.0564 54.0759 83.5951 54.2171 83.9585 54.4981C84.3123 54.771 84.4925 55.1836 84.4925 56.0538V56.33C83.9346 56.2497 83.423 56.2031 83.423 56.2031Z" fill="#00A1E0"/>
<path fill-rule="evenodd" clip-rule="evenodd" d="M135.73 52.8371C135.78 52.6894 135.676 52.6187 135.633 52.6027C135.523 52.5593 134.972 52.4421 134.546 52.4148C133.732 52.3651 133.279 52.5031 132.874 52.6861C132.472 52.8692 132.026 53.1646 131.778 53.5001V52.7054C131.778 52.5946 131.699 52.5063 131.591 52.5063H129.929C129.82 52.5063 129.742 52.5946 129.742 52.7054V62.4491C129.742 62.5583 129.831 62.6482 129.94 62.6482H131.644C131.752 62.6482 131.84 62.5583 131.84 62.4491V57.5813C131.84 56.9278 131.911 56.276 132.055 55.8666C132.195 55.462 132.386 55.1377 132.622 54.9049C132.86 54.6737 133.129 54.5116 133.424 54.4201C133.725 54.327 134.058 54.2965 134.294 54.2965C134.634 54.2965 135.007 54.3848 135.007 54.3848C135.131 54.3992 135.201 54.3221 135.243 54.2081C135.354 53.9095 135.67 53.0153 135.73 52.8371Z" fill="#00A1E0"/>
<path fill-rule="evenodd" clip-rule="evenodd" d="M119.738 48.3211C119.53 48.2569 119.342 48.2135 119.097 48.167C118.848 48.122 118.552 48.0996 118.215 48.0996C117.042 48.0996 116.118 48.4335 115.469 49.0917C114.824 49.7468 114.385 50.7438 114.166 52.0555L114.086 52.497H112.613C112.613 52.497 112.435 52.4906 112.396 52.6864L112.156 54.0463C112.138 54.1747 112.194 54.2566 112.366 54.2566H113.799L112.345 62.4317C112.232 63.09 112.102 63.631 111.956 64.042C111.815 64.4466 111.676 64.7501 111.504 64.9716C111.338 65.1835 111.182 65.3409 110.911 65.4324C110.688 65.5079 110.43 65.5432 110.147 65.5432C109.991 65.5432 109.782 65.5175 109.628 65.4854C109.475 65.4549 109.394 65.4212 109.277 65.3714C109.277 65.3714 109.11 65.3072 109.043 65.4757C108.99 65.6154 108.608 66.6734 108.562 66.8035C108.517 66.9335 108.581 67.0347 108.662 67.0652C108.853 67.1326 108.995 67.1776 109.255 67.2402C109.615 67.3253 109.92 67.3301 110.205 67.3301C110.801 67.3301 111.346 67.245 111.797 67.0812C112.25 66.9159 112.645 66.6285 112.996 66.24C113.373 65.8193 113.611 65.3794 113.837 64.7774C114.062 64.1833 114.255 63.4448 114.408 62.5843L115.869 54.2566H118.005C118.005 54.2566 118.185 54.263 118.222 54.0655L118.464 52.7073C118.48 52.5773 118.426 52.497 118.252 52.497H116.179C116.19 52.4504 116.284 51.7151 116.521 51.0231C116.623 50.7293 116.815 50.4901 116.975 50.3264C117.135 50.1658 117.318 50.0518 117.519 49.986C117.725 49.9186 117.959 49.8865 118.215 49.8865C118.41 49.8865 118.603 49.9089 118.748 49.9394C118.949 49.9828 119.027 50.0053 119.079 50.0213C119.291 50.0855 119.32 50.0229 119.361 49.9202L119.857 48.5491C119.908 48.4014 119.782 48.3388 119.738 48.3211Z" fill="#00A1E0"/>
<path fill-rule="evenodd" clip-rule="evenodd" d="M90.765 62.4497C90.765 62.5589 90.6869 62.6472 90.5785 62.6472H88.8587C88.7503 62.6472 88.6738 62.5589 88.6738 62.4497V48.5077C88.6738 48.3985 88.7503 48.3102 88.8587 48.3102H90.5785C90.6869 48.3102 90.765 48.3985 90.765 48.5077V62.4497Z" fill="#00A1E0"/>
</g>
<defs>
<clipPath id="clip0_235_1763">
<rect width="112" height="79" fill="white" transform="translate(53 20.5)"/>
</clipPath>
</defs>
</svg>
