<svg width="218" height="120" viewBox="0 0 218 120" fill="none" xmlns="http://www.w3.org/2000/svg">
<rect width="218" height="120" fill="#572D8E"/>
<g clip-path="url(#clip0_235_10946)">
<path fill-rule="evenodd" clip-rule="evenodd" d="M96.333 67.4011C96.333 64.0806 98.8438 61.4075 101.963 61.4075C105.081 61.4075 107.592 64.0806 107.592 67.4011V82.1546C107.592 85.475 105.081 88.1482 101.963 88.1482C98.8438 88.1482 96.333 85.475 96.333 82.1546V67.4011Z" fill="#E01E5A" stroke="#E01E5A" stroke-width="0.790123" stroke-linecap="round" stroke-linejoin="round"/>
<path fill-rule="evenodd" clip-rule="evenodd" d="M116.401 72.6667C113.08 72.6667 110.407 70.1559 110.407 67.0371C110.407 63.9183 113.08 61.4075 116.401 61.4075H131.154C134.475 61.4075 137.148 63.9183 137.148 67.0371C137.148 70.1559 134.475 72.6667 131.154 72.6667H116.401Z" fill="#ECB22D" stroke="#ECB22D" stroke-width="0.790123" stroke-linecap="round" stroke-linejoin="round"/>
<path fill-rule="evenodd" clip-rule="evenodd" d="M110.407 37.8454C110.407 34.525 112.918 31.8518 116.037 31.8518C119.156 31.8518 121.666 34.525 121.666 37.8454V52.5989C121.666 55.9194 119.156 58.5925 116.037 58.5925C112.918 58.5925 110.407 55.9194 110.407 52.5989V37.8454Z" fill="#2FB67C" stroke="#2FB67C" stroke-width="0.790123" stroke-linecap="round" stroke-linejoin="round"/>
<path fill-rule="evenodd" clip-rule="evenodd" d="M86.8451 58.5925C83.5247 58.5925 80.8516 56.0817 80.8516 52.9629C80.8516 49.8441 83.5247 47.3333 86.8451 47.3333H101.599C104.919 47.3333 107.592 49.8441 107.592 52.9629C107.592 56.0817 104.919 58.5925 101.599 58.5925H86.8451Z" fill="#36C5F1" stroke="#36C5F1" stroke-width="0.790123" stroke-linecap="round" stroke-linejoin="round"/>
<path fill-rule="evenodd" clip-rule="evenodd" d="M110.407 82.5186C110.406 83.2583 110.55 83.9911 110.833 84.6748C111.115 85.3585 111.53 85.9797 112.053 86.5028C112.576 87.0259 113.197 87.4405 113.881 87.7229C114.564 88.0052 115.297 88.1498 116.037 88.1482C119.156 88.1482 121.666 85.6374 121.666 82.5186C121.668 81.7788 121.524 81.0461 121.241 80.3623C120.959 79.6786 120.544 79.0574 120.021 78.5343C119.498 78.0112 118.877 77.5966 118.193 77.3142C117.509 77.0319 116.777 76.8874 116.037 76.8889H110.407V82.5186Z" fill="#ECB22D" stroke="#ECB22D" stroke-width="0.790123" stroke-linecap="round"/>
<path fill-rule="evenodd" clip-rule="evenodd" d="M131.518 58.5925H125.889V52.9629C125.889 49.8441 128.399 47.3333 131.518 47.3333C134.637 47.3333 137.148 49.8441 137.148 52.9629C137.148 56.0817 134.637 58.5925 131.518 58.5925Z" fill="#2FB67C" stroke="#2FB67C" stroke-width="0.790123" stroke-linecap="round"/>
<path fill-rule="evenodd" clip-rule="evenodd" d="M86.4812 61.4075H92.1108V67.0371C92.1108 70.1559 89.6 72.6667 86.4812 72.6667C85.7415 72.6683 85.0087 72.5238 84.325 72.2414C83.6412 71.9591 83.02 71.5444 82.4969 71.0214C81.9739 70.4983 81.5592 69.8771 81.2769 69.1933C80.9945 68.5096 80.85 67.7768 80.8516 67.0371C80.8516 63.9183 83.3624 61.4075 86.4812 61.4075Z" fill="#E01E5A" stroke="#E01E5A" stroke-width="0.790123" stroke-linecap="round"/>
<path fill-rule="evenodd" clip-rule="evenodd" d="M107.592 37.4814V43.1111H101.963C101.223 43.1127 100.49 42.9681 99.8064 42.6858C99.1227 42.4034 98.5015 41.9888 97.9784 41.4657C97.4553 40.9426 97.0407 40.3214 96.7583 39.6377C96.476 38.9539 96.3314 38.2212 96.333 37.4814C96.333 34.3626 98.8438 31.8518 101.963 31.8518C102.702 31.8502 103.435 31.9948 104.119 32.2771C104.803 32.5595 105.424 32.9741 105.947 33.4972C106.47 34.0203 106.885 34.6415 107.167 35.3252C107.449 36.0089 107.594 36.7417 107.592 37.4814Z" fill="#36C5F1" stroke="#36C5F1" stroke-width="0.790123" stroke-linecap="round"/>
</g>
<defs>
<clipPath id="clip0_235_10946">
<rect width="57" height="57" fill="white" transform="translate(80.5 31.5)"/>
</clipPath>
</defs>
</svg>
