<svg width="218" height="120" viewBox="0 0 218 120" fill="none" xmlns="http://www.w3.org/2000/svg">
<rect width="218" height="120" fill="#D3CCF5"/>
<g clip-path="url(#clip0_235_10982)">
<path d="M110.608 50.6491C115.122 50.6491 118.781 46.9854 118.781 42.4659C118.781 37.9465 115.122 34.2827 110.608 34.2827C106.094 34.2827 102.435 37.9465 102.435 42.4659C102.435 46.9854 106.094 50.6491 110.608 50.6491Z" fill="#7B83EB"/>
<path opacity="0.1" d="M110.025 44.2192H102.622L102.659 44.3823L102.662 44.3963L102.701 44.5471C103.239 46.5893 104.544 48.3446 106.344 49.4463C108.143 50.548 110.299 50.9111 112.359 50.4597V46.5565C112.358 45.9372 112.111 45.3438 111.674 44.9059C111.236 44.4679 110.644 44.2211 110.025 44.2192Z" fill="black"/>
<path opacity="0.2" d="M108.273 45.9727H103.223C103.886 47.3719 104.931 48.5541 106.239 49.3819C107.546 50.2097 109.061 50.6491 110.608 50.649V48.31C110.606 47.6906 110.36 47.0972 109.922 46.6593C109.485 46.2214 108.892 45.9745 108.273 45.9727Z" fill="black"/>
<path d="M128.997 51.2329C132.382 51.2329 135.126 48.4853 135.126 45.0959C135.126 41.7066 132.382 38.959 128.997 38.959C125.612 38.959 122.867 41.7066 122.867 45.0959C122.867 48.4853 125.612 51.2329 128.997 51.2329Z" fill="#5059C9"/>
<path d="M134.251 52.9863H120.484C120.186 52.9863 119.901 53.1046 119.691 53.315C119.481 53.5255 119.363 53.8109 119.363 54.1085V68.3287C119.325 70.3868 119.994 72.3954 121.259 74.0183C122.524 75.6411 124.307 76.7796 126.31 77.2431C127.586 77.5111 128.906 77.4909 130.173 77.184C131.44 76.877 132.622 76.291 133.635 75.4687C134.647 74.6463 135.463 73.6083 136.024 72.4302C136.585 71.2521 136.877 69.9635 136.878 68.6584V55.6165C136.878 54.9189 136.601 54.2499 136.108 53.7567C135.616 53.2634 134.948 52.9863 134.251 52.9863Z" fill="#5059C9"/>
<path d="M124.619 55.6165V72.2739C124.621 75.3609 123.605 78.3621 121.728 80.8118C119.852 83.2616 117.221 85.0228 114.243 85.8222C111.265 86.6215 108.106 86.4144 105.258 85.2328C102.409 84.0513 100.03 81.9614 98.4891 79.2876C98.1521 78.7268 97.8593 78.1406 97.6134 77.5342C97.3842 76.9624 97.1912 76.3768 97.0355 75.7808C96.7468 74.6342 96.5997 73.4564 96.5977 72.2739V55.6165C96.5972 55.2709 96.6648 54.9287 96.7967 54.6094C96.9285 54.2901 97.122 54 97.3661 53.7556C97.6101 53.5113 97.8999 53.3176 98.2188 53.1856C98.5377 53.0536 98.8795 52.9859 99.2246 52.9863H121.992C122.337 52.9859 122.679 53.0536 122.998 53.1856C123.317 53.3176 123.606 53.5113 123.85 53.7556C124.094 54 124.288 54.2901 124.42 54.6094C124.552 54.9287 124.619 55.2709 124.619 55.6165Z" fill="#7B83EB"/>
<path opacity="0.2" d="M108.273 45.9727H103.223C103.886 47.3719 104.931 48.5541 106.239 49.3819C107.546 50.2097 109.061 50.6491 110.608 50.649V48.31C110.606 47.6906 110.36 47.0972 109.922 46.6593C109.485 46.2214 108.892 45.9745 108.273 45.9727Z" fill="black"/>
<path opacity="0.1" d="M112.36 52.9863V75.2021C112.36 75.7307 112.179 76.2434 111.848 76.6549C111.516 77.0664 111.054 77.3519 110.538 77.464C110.373 77.5131 110.202 77.5368 110.03 77.5342H97.6134C97.3842 76.9624 97.1912 76.3768 97.0355 75.7808C96.7468 74.6342 96.5997 73.4564 96.5977 72.2739V55.6165C96.5972 55.2709 96.6648 54.9287 96.7967 54.6094C96.9285 54.2901 97.122 54 97.3661 53.7556C97.6101 53.5113 97.8999 53.3176 98.2188 53.1856C98.5377 53.0536 98.8795 52.9859 99.2246 52.9863H112.36Z" fill="black"/>
<path opacity="0.2" d="M110.608 52.9863V76.9556C110.611 77.1276 110.587 77.2991 110.538 77.464C110.426 77.9806 110.141 78.4432 109.73 78.775C109.319 79.1067 108.807 79.2876 108.279 79.2876H98.4891C98.1521 78.7268 97.8593 78.1406 97.6134 77.5342C97.3842 76.9624 97.1912 76.3768 97.0355 75.7808C96.7468 74.6342 96.5997 73.4564 96.5977 72.2739V55.6165C96.5972 55.2709 96.6648 54.9287 96.7967 54.6094C96.9285 54.2901 97.122 54 97.3661 53.7556C97.6101 53.5113 97.8999 53.3176 98.2188 53.1856C98.5377 53.0536 98.8795 52.9859 99.2246 52.9863H110.608Z" fill="black"/>
<path opacity="0.2" d="M110.608 52.9863V73.4487C110.605 74.0664 110.359 74.6579 109.923 75.0947C109.487 75.5314 108.896 75.778 108.279 75.7808H97.0355C96.7468 74.6342 96.5997 73.4564 96.5977 72.2739V55.6165C96.5972 55.2709 96.6648 54.9287 96.7967 54.6094C96.9285 54.2901 97.122 54 97.3661 53.7556C97.6101 53.5113 97.8999 53.3176 98.2188 53.1856C98.5377 53.0536 98.8795 52.9859 99.2246 52.9863H110.608Z" fill="black"/>
<path opacity="0.2" d="M99.2246 52.9863C98.8795 52.9859 98.5377 53.0536 98.2188 53.1856C97.8999 53.3176 97.6101 53.5113 97.3661 53.7556C97.122 54 96.9285 54.2901 96.7967 54.6094C96.6648 54.9287 96.5972 55.2709 96.5977 55.6165V72.2739C96.5997 73.4564 96.7468 74.6342 97.0355 75.7808H106.528C107.145 75.778 107.735 75.5314 108.172 75.0947C108.608 74.6579 108.854 74.0664 108.857 73.4487V52.9863H99.2246Z" fill="black"/>
<path d="M83.1695 45.9727H106.522C107.141 45.9727 107.735 46.2189 108.172 46.6572C108.61 47.0956 108.856 47.6901 108.856 48.31V71.69C108.856 72.3099 108.61 72.9044 108.172 73.3428C107.735 73.7811 107.141 74.0273 106.522 74.0273H83.1695C82.5503 74.0273 81.9565 73.7811 81.5187 73.3428C81.0809 72.9044 80.835 72.3099 80.835 71.69V48.31C80.835 47.6901 81.0809 47.0956 81.5187 46.6572C81.9565 46.2189 82.5503 45.9727 83.1695 45.9727Z" fill="#4B53BC"/>
<path d="M101.817 54.6959H96.5801V68.7583H93.144V54.6959H87.876V51.2417H101.817V54.6959Z" fill="white"/>
</g>
<defs>
<clipPath id="clip0_235_10982">
<rect width="57" height="56.1094" fill="white" transform="translate(80.5 31.9453)"/>
</clipPath>
</defs>
</svg>
