<svg width="218" height="120" viewBox="0 0 218 120" fill="none" xmlns="http://www.w3.org/2000/svg">
<rect width="218" height="120" fill="#FFBC00"/>
<g clip-path="url(#clip0_235_15888)">
<path d="M67.0314 77.4334C62.8783 77.4334 61.2403 75.0435 61.9379 71.0609L63.7788 60.547H60.0215L60.7396 56.4443H64.4942L65.6315 49.9517H70.5782L69.4409 56.4443H74.6222L73.9034 60.547H68.7228L66.958 70.623C66.6795 72.2158 67.2728 72.8934 68.8545 72.8934C69.9372 72.8963 71.019 72.8296 72.0933 72.6937L71.3608 76.876C69.9455 77.2384 68.4917 77.4256 67.0314 77.4334Z" fill="#021628"/>
<path d="M74.0723 77.0411L77.6787 56.4443H82.6741L79.0677 77.0411H74.0723Z" fill="#021628"/>
<path d="M140.74 77.4334C136.587 77.4334 134.949 75.0435 135.646 71.0609L137.487 60.547H133.733L134.452 56.4443H138.206L139.343 49.9517H144.29L143.153 56.4443H148.334L147.615 60.547H142.435L140.67 70.623C140.391 72.2158 140.985 72.8934 142.566 72.8934C143.649 72.8963 144.731 72.8296 145.805 72.6937L145.073 76.876C143.656 77.2387 142.201 77.4259 140.74 77.4334Z" fill="#021628"/>
<path d="M147.781 77.0411L151.388 56.4443H156.383L152.777 77.0411H147.781Z" fill="#021628"/>
<path d="M97.2714 75.9641C95.831 76.9932 94.0717 77.6266 91.99 77.6266C89.553 77.6266 87.7374 76.7556 86.9973 75.6084L85.3539 84.9888H80.4395L85.4225 56.5318H90.0119L89.5866 58.7884C91.1381 56.8882 93.5648 56.0566 95.8036 56.0566C97.8476 56.0566 99.3737 56.7694 100.451 57.7986C102.536 59.8148 103.211 62.9043 102.535 66.7812C101.828 70.819 100.062 73.9459 97.2714 75.9641ZM97.1157 61.8047C96.567 60.8943 95.6301 60.1808 94.0978 60.1808C90.243 60.1808 88.8115 63.8643 88.2909 66.8351C87.7704 69.8058 87.9199 73.4492 91.7739 73.4492C93.3083 73.4492 94.4949 72.7364 95.3626 71.8254C96.6205 70.4792 97.222 68.6171 97.5341 66.8351C97.8462 65.0531 97.9025 63.1515 97.1157 61.8047Z" fill="#021628"/>
<path d="M118.781 77.4176C116.654 77.4176 115.713 76.0707 115.826 74.5256C114.591 76.1895 111.981 77.6151 109.07 77.6151C104.193 77.6151 102.217 74.5256 102.806 71.1591C103.492 67.238 106.917 64.9808 110.859 64.7031L116.953 64.2679L117.175 63.0005C117.518 61.0596 117.076 59.7542 114.283 59.7542C112.001 59.7542 110.484 60.784 110.03 62.6855H105.274C106.36 58.0516 110.379 55.9919 114.942 55.9919C118.44 55.9919 121.237 57.1012 121.876 60.19C122.158 61.4975 121.98 62.9625 121.739 64.3488L120.399 71.9914C120.233 72.9418 120.485 73.2982 121.311 73.2982C121.528 73.2938 121.743 73.2672 121.954 73.2188L121.319 76.8629C120.427 77.2193 119.96 77.4176 118.781 77.4176ZM116.311 67.9466L111.051 68.3424C109.535 68.4612 107.92 69.3722 107.629 71.0361C107.355 72.6206 108.555 73.6111 110.089 73.6111C113.156 73.6111 115.611 71.9472 116.145 68.8977L116.311 67.9466Z" fill="#021628"/>
<path d="M129.046 77.318C125.702 77.318 123.745 75.6941 124.432 71.773L128.244 49.9468H133.2L129.533 70.9386C129.327 72.1266 129.465 72.9189 131.153 72.9189C131.585 72.9189 131.71 72.8788 131.985 72.8788L131.258 77.0375C130.24 77.2385 130.03 77.318 129.046 77.318Z" fill="#021628"/>
<path d="M157.997 46.5997C158.021 47.2956 157.861 47.9854 157.534 48.5991C157.207 49.2128 156.725 49.7285 156.136 50.0939C155.548 50.4593 154.873 50.6614 154.182 50.6797C153.491 50.6981 152.807 50.5319 152.2 50.1982C152.132 50.1575 152.063 50.1167 151.994 50.0773C151.99 50.0718 151.988 50.0697 151.984 50.0697C141.668 43.9619 129.567 40.6306 116.723 41.0602C103.56 41.5009 91.4335 45.8295 81.3994 52.9189C81.3473 52.9534 81.2931 52.988 81.2417 53.0273C81.1498 53.0747 81.0486 53.1012 80.9454 53.1047C80.8521 53.1079 80.7592 53.0926 80.6718 53.0596C80.5845 53.0267 80.5044 52.9767 80.4363 52.9125C80.3681 52.8484 80.3132 52.7713 80.2746 52.6858C80.236 52.6002 80.2146 52.5079 80.2115 52.414C80.2065 52.2866 80.2362 52.1603 80.2972 52.0486C80.4145 51.9395 80.5318 51.8352 80.6504 51.7281C91.6742 41.8034 106.088 35.5698 122.024 35.0373C134.199 34.6298 145.707 37.6019 155.66 43.1185C155.665 43.1185 155.667 43.1185 155.671 43.124L155.949 43.2774C156.367 43.5042 156.741 43.8041 157.054 44.1629C157.636 44.8429 157.968 45.7028 157.997 46.5997Z" fill="black"/>
</g>
<defs>
<clipPath id="clip0_235_15888">
<rect width="98" height="50" fill="white" transform="translate(60 35)"/>
</clipPath>
</defs>
</svg>
