<svg width="38" height="24" viewBox="0 0 38 24" fill="none" xmlns="http://www.w3.org/2000/svg">
<path d="M14.3396 16H9.89233V8.14746H14.3396V9.23242H11.1814V11.3647H14.1409V12.4443H11.1814V14.9097H14.3396V16ZM17.906 16.1074C17.197 16.1074 16.6277 15.8496 16.198 15.334C15.7719 14.8148 15.5588 14.0503 15.5588 13.0405C15.5588 12.02 15.7755 11.2484 16.2087 10.7256C16.6456 10.2028 17.2203 9.94141 17.9329 9.94141C18.2336 9.94141 18.4968 9.98258 18.7224 10.0649C18.948 10.1437 19.1414 10.2511 19.3025 10.3872C19.4672 10.5233 19.6069 10.6755 19.7214 10.8438H19.7805C19.7626 10.7327 19.7411 10.5734 19.7161 10.3657C19.6946 10.1545 19.6838 9.95931 19.6838 9.78027V7.64258H20.9514V16H19.9631L19.7375 15.189H19.6838C19.5764 15.3608 19.4403 15.5166 19.2756 15.6562C19.1145 15.7923 18.9211 15.9015 18.6956 15.9839C18.4736 16.0662 18.2104 16.1074 17.906 16.1074ZM18.2605 15.0815C18.8012 15.0815 19.1825 14.9258 19.4045 14.6143C19.6265 14.3027 19.7411 13.8354 19.7483 13.2124V13.0459C19.7483 12.3799 19.6409 11.8696 19.426 11.5151C19.2112 11.1571 18.8191 10.978 18.2498 10.978C17.795 10.978 17.4477 11.1624 17.2078 11.5312C16.9714 11.8965 16.8533 12.4067 16.8533 13.062C16.8533 13.7173 16.9714 14.2186 17.2078 14.5659C17.4477 14.9097 17.7986 15.0815 18.2605 15.0815ZM24.0237 10.0542V16H22.7615V10.0542H24.0237ZM23.4006 7.77686C23.594 7.77686 23.7605 7.82878 23.9001 7.93262C24.0434 8.03646 24.115 8.21549 24.115 8.46973C24.115 8.72038 24.0434 8.89941 23.9001 9.00684C23.7605 9.11068 23.594 9.1626 23.4006 9.1626C23.2001 9.1626 23.03 9.11068 22.8904 9.00684C22.7543 8.89941 22.6863 8.72038 22.6863 8.46973C22.6863 8.21549 22.7543 8.03646 22.8904 7.93262C23.03 7.82878 23.2001 7.77686 23.4006 7.77686ZM28.0466 15.0869C28.2113 15.0869 28.3743 15.0726 28.5354 15.0439C28.6965 15.0117 28.8433 14.9741 28.9758 14.9312V15.8872C28.8362 15.9481 28.6554 16 28.4333 16.043C28.2113 16.0859 27.9804 16.1074 27.7405 16.1074C27.4039 16.1074 27.1013 16.0519 26.8328 15.9409C26.5642 15.8263 26.3512 15.6312 26.1936 15.3555C26.0361 15.0798 25.9573 14.6984 25.9573 14.2114V11.0156H25.1462V10.4517L26.0164 10.0059L26.4299 8.73291H27.2249V10.0542H28.9275V11.0156H27.2249V14.1953C27.2249 14.4961 27.3 14.7199 27.4504 14.8667C27.6008 15.0135 27.7996 15.0869 28.0466 15.0869Z" fill="#6039F5"/>
<rect x="0.821533" y="0.25" width="36.5" height="23.5" rx="2.75" stroke="#6039F5" stroke-width="0.5"/>
</svg>
