<svg width="20" height="20" viewBox="0 0 20 20" fill="none" xmlns="http://www.w3.org/2000/svg">
<g clip-path="url(#clip0_235_9357)">
<path d="M16.7561 -0.520508H2.7561C1.6561 -0.520508 0.756104 0.379492 0.756104 1.47949V15.4795C0.756104 16.5795 1.6561 17.4795 2.7561 17.4795H16.7561C17.8561 17.4795 18.7561 16.5795 18.7561 15.4795V1.47949C18.7561 0.379492 17.8561 -0.520508 16.7561 -0.520508ZM7.2561 7.97949C7.2561 8.77949 6.5561 9.47949 5.7561 9.47949H4.7561V11.4795H3.2561V5.47949H5.7561C6.5561 5.47949 7.2561 6.17949 7.2561 6.97949V7.97949ZM12.2561 9.97949C12.2561 10.7795 11.5561 11.4795 10.7561 11.4795H8.2561V5.47949H10.7561C11.5561 5.47949 12.2561 6.17949 12.2561 6.97949V9.97949ZM16.2561 6.97949H14.7561V7.97949H16.2561V9.47949H14.7561V11.4795H13.2561V5.47949H16.2561V6.97949ZM9.7561 6.97949H10.7561V9.97949H9.7561V6.97949ZM4.7561 6.97949H5.7561V7.97949H4.7561V6.97949Z" fill="#6039F5"/>
</g>
<defs>
<clipPath id="clip0_235_9357">
<rect width="19" height="20" fill="white" transform="translate(0.143066)"/>
</clipPath>
</defs>
</svg>
