<svg width="20" height="21" viewBox="0 0 20 21" fill="none" xmlns="http://www.w3.org/2000/svg">
<path d="M10 17.7C7.5 17.7 5.29 16.42 4 14.5C4.03 12.5 8 11.4 10 11.4C12 11.4 15.97 12.5 16 14.5C14.71 16.42 12.5 17.7 10 17.7ZM10 3.5C10.7956 3.5 11.5587 3.81607 12.1213 4.37868C12.6839 4.94129 13 5.70435 13 6.5C13 7.29565 12.6839 8.05871 12.1213 8.62132C11.5587 9.18393 10.7956 9.5 10 9.5C9.20435 9.5 8.44129 9.18393 7.87868 8.62132C7.31607 8.05871 7 7.29565 7 6.5C7 5.70435 7.31607 4.94129 7.87868 4.37868C8.44129 3.81607 9.20435 3.5 10 3.5ZM10 0.5C8.68678 0.5 7.38642 0.758658 6.17317 1.2612C4.95991 1.76375 3.85752 2.50035 2.92893 3.42893C1.05357 5.3043 0 7.84784 0 10.5C0 13.1522 1.05357 15.6957 2.92893 17.5711C3.85752 18.4997 4.95991 19.2362 6.17317 19.7388C7.38642 20.2413 8.68678 20.5 10 20.5C12.6522 20.5 15.1957 19.4464 17.0711 17.5711C18.9464 15.6957 20 13.1522 20 10.5C20 4.97 15.5 0.5 10 0.5Z" fill="black"/>
</svg>
