<svg width="79" height="24" viewBox="0 0 79 24" fill="none" xmlns="http://www.w3.org/2000/svg">
<rect x="0.571533" width="78" height="24" rx="3" fill="#6039F5"/>
<path d="M12.3401 16H11.0457V9.24316H8.74683V8.14746H14.6335V9.24316H12.3401V16ZM18.0388 9.94141C18.7908 9.94141 19.3583 10.1079 19.7415 10.4409C20.1282 10.7739 20.3215 11.2931 20.3215 11.9985V16H19.4246L19.1829 15.1567H19.1399C18.9716 15.3716 18.7979 15.5488 18.6189 15.6885C18.4399 15.8281 18.2322 15.932 17.9958 16C17.7631 16.0716 17.4784 16.1074 17.1418 16.1074C16.7874 16.1074 16.4705 16.043 16.1912 15.9141C15.9119 15.7816 15.6917 15.5811 15.5305 15.3125C15.3694 15.0439 15.2888 14.7038 15.2888 14.292C15.2888 13.6797 15.5162 13.2196 15.9709 12.9116C16.4293 12.6037 17.1204 12.4336 18.0442 12.4014L19.0754 12.3638V12.0522C19.0754 11.6405 18.9788 11.3468 18.7854 11.1714C18.5956 10.9959 18.3271 10.9082 17.9797 10.9082C17.6825 10.9082 17.3943 10.9512 17.115 11.0371C16.8357 11.123 16.5636 11.2287 16.2986 11.354L15.8904 10.4624C16.1804 10.3084 16.5098 10.1831 16.8787 10.0864C17.2511 9.98975 17.6378 9.94141 18.0388 9.94141ZM19.0701 13.1587L18.302 13.1855C17.6718 13.207 17.2296 13.3145 16.9753 13.5078C16.7211 13.7012 16.594 13.9661 16.594 14.3027C16.594 14.5964 16.6817 14.8112 16.8572 14.9473C17.0326 15.0798 17.2636 15.146 17.55 15.146C17.9869 15.146 18.3486 15.0225 18.635 14.7754C18.925 14.5247 19.0701 14.1577 19.0701 13.6743V13.1587ZM23.3508 7.64258V11.6816C23.3508 11.8643 23.3437 12.0648 23.3293 12.2832C23.315 12.498 23.3007 12.7004 23.2864 12.8901H23.3132C23.4063 12.7648 23.5173 12.618 23.6462 12.4497C23.7787 12.2814 23.9041 12.1346 24.0222 12.0093L25.8376 10.0542H27.2878L24.9084 12.6108L27.4436 16H25.9612L24.0598 13.3896L23.3508 13.9966V16H22.0886V7.64258H23.3508ZM30.7629 9.94141C31.2929 9.94141 31.7476 10.0506 32.1272 10.269C32.5068 10.4875 32.7986 10.7972 33.0027 11.1982C33.2068 11.5993 33.3088 12.0791 33.3088 12.6377V13.3145H29.3396C29.3539 13.891 29.5079 14.335 29.8015 14.6465C30.0987 14.958 30.5141 15.1138 31.0476 15.1138C31.4272 15.1138 31.7673 15.078 32.0681 15.0063C32.3725 14.9312 32.6858 14.8219 33.0081 14.6787V15.7046C32.7109 15.8442 32.4083 15.9463 32.1003 16.0107C31.7924 16.0752 31.4236 16.1074 30.9939 16.1074C30.4102 16.1074 29.8964 15.9946 29.4524 15.769C29.012 15.5399 28.6664 15.1997 28.4158 14.7485C28.1687 14.2974 28.0452 13.737 28.0452 13.0674C28.0452 12.4014 28.158 11.8356 28.3835 11.3701C28.6091 10.9046 28.926 10.5501 29.3342 10.3066C29.7424 10.0632 30.2187 9.94141 30.7629 9.94141ZM30.7629 10.8921C30.3655 10.8921 30.0432 11.021 29.7961 11.2788C29.5527 11.5366 29.4094 11.9144 29.3665 12.4121H32.0735C32.0699 12.1149 32.0198 11.8517 31.9231 11.6226C31.83 11.3934 31.6868 11.2144 31.4934 11.0854C31.3036 10.9565 31.0601 10.8921 30.7629 10.8921ZM42.5847 16L41.8167 13.8193H38.8142L38.0461 16H36.6873L39.6091 8.11523H41.0378L43.9543 16H42.5847ZM41.4836 12.7129L40.7371 10.5645C40.7084 10.4714 40.6672 10.3407 40.6135 10.1724C40.5598 10.0005 40.5061 9.82682 40.4524 9.65137C40.3987 9.47233 40.3539 9.32194 40.3181 9.2002C40.2823 9.34701 40.2375 9.51172 40.1838 9.69434C40.1337 9.87337 40.0836 10.0417 40.0334 10.1992C39.9869 10.3568 39.9511 10.4785 39.926 10.5645L39.1741 12.7129H41.4836ZM47.2576 16.1074C46.6954 16.1074 46.2084 15.9982 45.7966 15.7798C45.3848 15.5614 45.068 15.2266 44.8459 14.7754C44.6239 14.3242 44.5129 13.7513 44.5129 13.0566C44.5129 12.3333 44.6347 11.7425 44.8782 11.2842C45.1217 10.8258 45.4583 10.4875 45.8879 10.269C46.3212 10.0506 46.8171 9.94141 47.3757 9.94141C47.7302 9.94141 48.0507 9.97721 48.3372 10.0488C48.6272 10.1169 48.8725 10.201 49.073 10.3013L48.697 11.311C48.4786 11.2215 48.2548 11.1463 48.0256 11.0854C47.7965 11.0246 47.5763 10.9941 47.365 10.9941C47.0177 10.9941 46.7276 11.0711 46.4949 11.2251C46.2657 11.3791 46.0938 11.6082 45.9792 11.9126C45.8682 12.217 45.8127 12.5947 45.8127 13.0459C45.8127 13.4827 45.87 13.8516 45.9846 14.1523C46.0992 14.4495 46.2693 14.6751 46.4949 14.8291C46.7205 14.9795 46.998 15.0547 47.3274 15.0547C47.6532 15.0547 47.9451 15.0153 48.2029 14.9365C48.4607 14.8577 48.7042 14.7557 48.9333 14.6304V15.7261C48.7078 15.855 48.4661 15.9499 48.2083 16.0107C47.9504 16.0752 47.6335 16.1074 47.2576 16.1074ZM52.5427 15.0869C52.7074 15.0869 52.8704 15.0726 53.0315 15.0439C53.1926 15.0117 53.3394 14.9741 53.4719 14.9312V15.8872C53.3323 15.9481 53.1514 16 52.9294 16.043C52.7074 16.0859 52.4765 16.1074 52.2366 16.1074C51.9 16.1074 51.5974 16.0519 51.3289 15.9409C51.0603 15.8263 50.8472 15.6312 50.6897 15.3555C50.5321 15.0798 50.4534 14.6984 50.4534 14.2114V11.0156H49.6423V10.4517L50.5125 10.0059L50.926 8.73291H51.7209V10.0542H53.4236V11.0156H51.7209V14.1953C51.7209 14.4961 51.7961 14.7199 51.9465 14.8667C52.0969 15.0135 52.2957 15.0869 52.5427 15.0869ZM55.9426 10.0542V16H54.6804V10.0542H55.9426ZM55.3196 7.77686C55.5129 7.77686 55.6794 7.82878 55.8191 7.93262C55.9623 8.03646 56.0339 8.21549 56.0339 8.46973C56.0339 8.72038 55.9623 8.89941 55.8191 9.00684C55.6794 9.11068 55.5129 9.1626 55.3196 9.1626C55.1191 9.1626 54.949 9.11068 54.8093 9.00684C54.6733 8.89941 54.6052 8.72038 54.6052 8.46973C54.6052 8.21549 54.6733 8.03646 54.8093 7.93262C54.949 7.82878 55.1191 7.77686 55.3196 7.77686ZM63.0164 13.0137C63.0164 13.5078 62.9519 13.9465 62.823 14.3296C62.6941 14.7127 62.5061 15.0368 62.259 15.3018C62.012 15.5632 61.7148 15.7637 61.3674 15.9033C61.0201 16.0394 60.628 16.1074 60.1912 16.1074C59.783 16.1074 59.4088 16.0394 59.0686 15.9033C58.7284 15.7637 58.433 15.5632 58.1824 15.3018C57.9353 15.0368 57.7437 14.7127 57.6077 14.3296C57.4716 13.9465 57.4036 13.5078 57.4036 13.0137C57.4036 12.3584 57.5164 11.8034 57.7419 11.3486C57.9711 10.8903 58.297 10.5412 58.7195 10.3013C59.142 10.0614 59.6451 9.94141 60.2288 9.94141C60.7766 9.94141 61.26 10.0614 61.679 10.3013C62.0979 10.5412 62.4255 10.8903 62.6619 11.3486C62.8982 11.807 63.0164 12.362 63.0164 13.0137ZM58.7034 13.0137C58.7034 13.4469 58.7553 13.8175 58.8591 14.1255C58.9666 14.4334 59.1313 14.6698 59.3533 14.8345C59.5753 14.9956 59.8617 15.0762 60.2126 15.0762C60.5636 15.0762 60.85 14.9956 61.072 14.8345C61.294 14.6698 61.4569 14.4334 61.5608 14.1255C61.6646 13.8175 61.7166 13.4469 61.7166 13.0137C61.7166 12.5804 61.6646 12.2134 61.5608 11.9126C61.4569 11.6082 61.294 11.3773 61.072 11.2197C60.85 11.0586 60.5618 10.978 60.2073 10.978C59.6845 10.978 59.3031 11.1535 59.0632 11.5044C58.8233 11.8553 58.7034 12.3584 58.7034 13.0137ZM67.5657 9.94141C68.2353 9.94141 68.7563 10.1151 69.1287 10.4624C69.5046 10.8062 69.6926 11.3594 69.6926 12.1221V16H68.4304V12.3584C68.4304 11.8965 68.3355 11.5509 68.1458 11.3218C67.956 11.089 67.6624 10.9727 67.2649 10.9727C66.6884 10.9727 66.2874 11.1499 66.0618 11.5044C65.8398 11.8589 65.7288 12.3727 65.7288 13.0459V16H64.4666V10.0542H65.4495L65.6267 10.8599H65.6965C65.8254 10.6522 65.9848 10.4821 66.1746 10.3496C66.3679 10.2135 66.5828 10.1115 66.8191 10.0435C67.059 9.97542 67.3079 9.94141 67.5657 9.94141Z" fill="white"/>
</svg>
