<svg width="218" height="120" viewBox="0 0 218 120" fill="none" xmlns="http://www.w3.org/2000/svg">
<rect width="218" height="120" fill="#F2F2F2"/>
<path d="M84.3871 81.382H93.4503V59.369L80.4995 49.6445V77.4944C80.4995 79.6497 82.244 81.382 84.3871 81.382Z" fill="#4285F4"/>
<path d="M124.549 81.382H133.613C135.756 81.382 137.5 79.6374 137.5 77.4944V49.6445L124.549 59.3568V81.382Z" fill="#34A853"/>
<path d="M124.549 42.5203V59.3575L137.5 49.6453V44.4585C137.5 39.6591 132.017 36.9116 128.175 39.7961L124.549 42.5203Z" fill="#FBBC04"/>
<path d="M93.4497 59.369V42.5195L108.999 54.1823L124.548 42.5195V59.369L108.999 71.0195L93.4497 59.369Z" fill="#EA4335"/>
<path d="M80.4995 44.4702V49.657L93.4503 59.3693V42.5209L89.8244 39.8078C85.9824 36.9233 80.4995 39.6709 80.4995 44.4702Z" fill="#C5221F"/>
</svg>
