<svg width="19" height="18" viewBox="0 0 19 18" fill="none" xmlns="http://www.w3.org/2000/svg">
<g clip-path="url(#clip0_2213_52828)">
<path d="M18.1173 14.8845H0.738093C0.566707 14.8845 0.427734 14.7458 0.427734 14.5747V3.42496C0.427734 3.25393 0.566707 3.11523 0.738093 3.11523H18.1174C18.2888 3.11523 18.4277 3.25393 18.4277 3.42496V14.5747C18.4277 14.7458 18.2887 14.8845 18.1173 14.8845Z" fill="#41479B"/>
<path d="M9.11734 3.11523H8.57826L5.70354 4.99488V3.11523H4.15182V4.99488L1.27711 3.11523H0.738093C0.566706 3.11523 0.427734 3.25389 0.427734 3.42493V3.6706L2.89411 5.28321H0.427734V6.8318H2.89411L0.427734 8.44445V8.69012C0.427734 8.86116 0.566706 8.99985 0.738093 8.99985H1.27718L4.15189 7.1202V8.99985H5.70361V7.1202L8.57829 8.99985H9.11738C9.28876 8.99985 9.42773 8.86116 9.42773 8.69012V8.44445L6.96136 6.83183H9.4277V5.28325H6.96132L9.4277 3.67063V3.42497C9.4277 3.25389 9.28873 3.11523 9.11734 3.11523Z" fill="#F5F5F5"/>
<path d="M9.42773 5.59298H5.39324V3.11523H4.46223V5.59298H0.427734V6.5221H4.46223V8.99985H5.39324V6.5221H9.42773V5.59298Z" fill="#FF4B55"/>
<path d="M3.88927 5.19216L0.577706 3.11523C0.489584 3.1691 0.427734 3.25965 0.427734 3.36787V3.38365L3.31127 5.19216H3.88927Z" fill="#FF4B55"/>
<path d="M6.20944 5.19216L9.42683 3.26403C9.37091 3.17668 9.27225 3.11523 9.15433 3.11523H9.08483L5.61914 5.19216H6.20944Z" fill="#FF4B55"/>
<path d="M3.64414 6.92383L0.427734 8.84826C0.483198 8.93773 0.58355 9.00075 0.703375 9.00075H0.764089L4.23543 6.92383H3.64414Z" fill="#FF4B55"/>
<path d="M9.42834 8.75272L6.53441 6.92383H5.9668L9.25309 9.00075C9.35153 8.95627 9.41906 8.86305 9.42834 8.75272Z" fill="#FF4B55"/>
<path d="M4.99296 10.7801L5.22245 11.5563L5.95792 11.2562C6.02067 11.2306 6.07771 11.3039 6.03941 11.3608L5.59013 12.0285L6.27769 12.4304C6.33634 12.4647 6.31599 12.5561 6.24862 12.561L5.45887 12.6174L5.58083 13.4187C5.59123 13.4871 5.50878 13.5278 5.46311 13.4768L4.92758 12.8795L4.39206 13.4768C4.34639 13.5278 4.26393 13.4871 4.27434 13.4187L4.3963 12.6174L3.60655 12.561C3.53918 12.5561 3.51883 12.4647 3.57748 12.4304L4.26504 12.0285L3.81576 11.3608C3.77746 11.3039 3.8345 11.2306 3.89725 11.2562L4.63272 11.5563L4.86221 10.7801C4.88188 10.7139 4.97339 10.7139 4.99296 10.7801Z" fill="#F5F5F5"/>
<path d="M14.3071 5.21624L14.4218 5.60429L14.7895 5.45427C14.8209 5.44149 14.8494 5.47811 14.8302 5.5066L14.6056 5.84048L14.9494 6.04145C14.9787 6.05857 14.9685 6.10429 14.9348 6.10668L14.54 6.13492L14.601 6.53553C14.6062 6.56973 14.5649 6.59007 14.5421 6.56457L14.2743 6.26594L14.0066 6.56457C13.9838 6.59003 13.9425 6.5697 13.9477 6.53553L14.0087 6.13492L13.6138 6.10668C13.5801 6.10429 13.57 6.05857 13.5993 6.04145L13.943 5.84048L13.7184 5.5066C13.6993 5.47811 13.7278 5.44149 13.7592 5.45427L14.1268 5.60429L14.2416 5.21624C14.2515 5.18313 14.2973 5.18313 14.3071 5.21624Z" fill="#F5F5F5"/>
<path d="M11.5376 7.98578L11.6523 8.37382L12.02 8.2238C12.0513 8.21102 12.0799 8.24764 12.0607 8.27613L11.8361 8.61001L12.1799 8.81099C12.2092 8.8281 12.199 8.87383 12.1653 8.87621L11.7705 8.90445L11.8314 9.30507C11.8366 9.33927 11.7954 9.3596 11.7726 9.3341L11.5048 9.03547L11.2371 9.3341C11.2142 9.35956 11.173 9.33923 11.1782 9.30507L11.2391 8.90445L10.8443 8.87621C10.8106 8.87383 10.8004 8.8281 10.8298 8.81099L11.1735 8.61001L10.9489 8.27613C10.9297 8.24764 10.9583 8.21102 10.9896 8.2238L11.3573 8.37382L11.4721 7.98578C11.482 7.95266 11.5278 7.95266 11.5376 7.98578Z" fill="#F5F5F5"/>
<path d="M16.7289 6.94671L16.8437 7.33476L17.2114 7.18474C17.2427 7.17196 17.2713 7.20858 17.2521 7.23707L17.0275 7.57095L17.3713 7.77192C17.4006 7.78904 17.3904 7.83476 17.3567 7.83715L16.9619 7.86539L17.0228 8.266C17.028 8.3002 16.9868 8.32054 16.964 8.29504L16.6962 7.99641L16.4285 8.29504C16.4056 8.3205 16.3644 8.30017 16.3696 8.266L16.4306 7.86539L16.0357 7.83715C16.002 7.83476 15.9918 7.78904 16.0212 7.77192L16.3649 7.57095L16.1403 7.23707C16.1211 7.20858 16.1497 7.17196 16.181 7.18474L16.5487 7.33476L16.6635 6.94671C16.6734 6.9136 16.7191 6.9136 16.7289 6.94671Z" fill="#F5F5F5"/>
<path d="M14.3071 11.7924L14.4218 12.1805L14.7895 12.0304C14.8209 12.0176 14.8494 12.0543 14.8302 12.0827L14.6056 12.4166L14.9494 12.6176C14.9787 12.6347 14.9685 12.6805 14.9348 12.6828L14.54 12.7111L14.601 13.1117C14.6062 13.1459 14.5649 13.1662 14.5421 13.1407L14.2743 12.8421L14.0066 13.1407C13.9838 13.1662 13.9425 13.1459 13.9477 13.1117L14.0087 12.7111L13.6138 12.6828C13.5801 12.6805 13.57 12.6347 13.5993 12.6176L13.943 12.4166L13.7184 12.0827C13.6993 12.0543 13.7278 12.0176 13.7592 12.0304L14.1268 12.1805L14.2416 11.7924C14.2515 11.7593 14.2973 11.7593 14.3071 11.7924Z" fill="#F5F5F5"/>
<path d="M15.0963 8.68409L14.9922 9.01083L14.6632 9.01349C14.6206 9.01387 14.6029 9.07074 14.6372 9.09722L14.9019 9.30183L14.8026 9.6302C14.7898 9.67273 14.8361 9.70788 14.8707 9.68194L15.1384 9.48167L15.4061 9.68194C15.4407 9.70788 15.4869 9.67269 15.4741 9.6302L15.3748 9.30183L15.6395 9.09722C15.6738 9.0707 15.6561 9.01387 15.6135 9.01349L15.2845 9.01083L15.1804 8.68409C15.1669 8.64176 15.1098 8.64176 15.0963 8.68409Z" fill="#F5F5F5"/>
</g>
<defs>
<clipPath id="clip0_2213_52828">
<rect width="18" height="18" fill="white" transform="translate(0.427734)"/>
</clipPath>
</defs>
</svg>
