<svg width="19" height="18" viewBox="0 0 19 18" fill="none" xmlns="http://www.w3.org/2000/svg">
<g clip-path="url(#clip0_2213_52930)">
<path d="M18.1173 14.8966H0.738093C0.566707 14.8966 0.427734 14.7577 0.427734 14.5863V3.41387C0.427734 3.24249 0.566707 3.10352 0.738093 3.10352H18.1174C18.2888 3.10352 18.4277 3.24249 18.4277 3.41387V14.5863C18.4277 14.7577 18.2887 14.8966 18.1173 14.8966Z" fill="#73AF00"/>
<path d="M9.26619 4.75423L2.72517 8.7357C2.5265 8.85661 2.5265 9.14496 2.72517 9.26589L9.26619 13.2474C9.3653 13.3077 9.48978 13.3077 9.58892 13.2474L16.13 9.26593C16.3286 9.14503 16.3286 8.85668 16.13 8.73574L9.58892 4.75423C9.48982 4.6939 9.3653 4.6939 9.26619 4.75423Z" fill="#FFE15A"/>
<path d="M9.42804 11.483C10.7992 11.483 11.9108 10.3715 11.9108 9.00031C11.9108 7.62913 10.7992 6.51758 9.42804 6.51758C8.05687 6.51758 6.94531 7.62913 6.94531 9.00031C6.94531 10.3715 8.05687 11.483 9.42804 11.483Z" fill="#41479B"/>
<path d="M7.29666 7.72908C7.17952 7.92518 7.08906 8.13829 7.0293 8.36459C8.40563 8.26102 10.4416 8.64605 11.7375 9.90349C11.8221 9.68759 11.8779 9.4576 11.8989 9.21717C10.5608 8.09101 8.71089 7.69054 7.29666 7.72908Z" fill="#F5F5F5"/>
<path d="M9.53023 9.84737L9.59632 10.0456L9.80526 10.0472C9.83229 10.0474 9.84351 10.0819 9.82178 10.098L9.6537 10.2221L9.71673 10.4213C9.72489 10.4471 9.6955 10.4685 9.67353 10.4527L9.50354 10.3312L9.33357 10.4527C9.31156 10.4685 9.2822 10.4471 9.29036 10.4213L9.35339 10.2221L9.18531 10.098C9.16355 10.0819 9.17476 10.0474 9.2018 10.0472L9.41073 10.0456L9.47683 9.84737C9.48537 9.82171 9.52165 9.82171 9.53023 9.84737Z" fill="#F5F5F5"/>
<path d="M10.341 10.3599L10.3694 10.4452L10.4593 10.4459C10.471 10.4459 10.4758 10.4608 10.4664 10.4677L10.3941 10.5211L10.4212 10.6069C10.4247 10.618 10.4121 10.6272 10.4026 10.6204L10.3294 10.5681L10.2563 10.6204C10.2468 10.6272 10.2342 10.618 10.2377 10.6069L10.2648 10.5211L10.1924 10.4677C10.1831 10.4608 10.1879 10.446 10.1995 10.4459L10.2895 10.4452L10.3179 10.3599C10.3216 10.3488 10.3373 10.3488 10.341 10.3599Z" fill="#F5F5F5"/>
<path d="M9.17886 9.46922L9.2073 9.55451L9.29723 9.55521C9.30887 9.55528 9.31372 9.57015 9.30433 9.57708L9.23198 9.63048L9.25909 9.71622C9.2626 9.72733 9.24998 9.73651 9.24049 9.72972L9.16733 9.67745L9.09417 9.72972C9.08471 9.73651 9.07206 9.72733 9.07557 9.71622L9.10268 9.63048L9.03033 9.57708C9.02097 9.57019 9.02579 9.55531 9.03743 9.55521L9.12736 9.55451L9.1558 9.46922C9.15952 9.45818 9.17517 9.45818 9.17886 9.46922Z" fill="#F5F5F5"/>
<path d="M7.60269 9.3657L7.63113 9.45099L7.72106 9.45169C7.7327 9.45176 7.73755 9.46663 7.72816 9.47356L7.65581 9.52696L7.68292 9.61271C7.68643 9.62382 7.67381 9.63299 7.66432 9.62621L7.59116 9.57393L7.518 9.62621C7.50854 9.63299 7.49588 9.62382 7.4994 9.61271L7.5265 9.52696L7.45415 9.47356C7.4448 9.46667 7.44962 9.4518 7.46125 9.45169L7.55118 9.45099L7.57963 9.3657C7.58339 9.35466 7.599 9.35466 7.60269 9.3657Z" fill="#F5F5F5"/>
<path d="M8.92105 10.3305L8.94949 10.4158L9.03942 10.4165C9.05105 10.4166 9.05591 10.4315 9.04652 10.4384L8.97417 10.4918L9.00127 10.5775C9.00479 10.5886 8.99217 10.5978 8.98268 10.591L8.90952 10.5387L8.83636 10.591C8.8269 10.5978 8.81424 10.5886 8.81776 10.5775L8.84486 10.4918L8.77251 10.4384C8.76316 10.4315 8.76798 10.4166 8.77961 10.4165L8.86954 10.4158L8.89798 10.3305C8.90175 10.3195 8.91739 10.3195 8.92105 10.3305Z" fill="#F5F5F5"/>
<path d="M8.19577 9.30756L8.21905 9.37731L8.29259 9.37791C8.30209 9.37798 8.30606 9.39014 8.29843 9.3958L8.23926 9.43946L8.26144 9.50957C8.26433 9.51864 8.25399 9.52616 8.24622 9.5206L8.18639 9.47785L8.12655 9.5206C8.11878 9.52616 8.10848 9.51864 8.11133 9.50957L8.13351 9.43946L8.07434 9.3958C8.06671 9.39014 8.07062 9.37798 8.08018 9.37791L8.15373 9.37731L8.177 9.30756C8.17999 9.29852 8.19275 9.29852 8.19577 9.30756Z" fill="#F5F5F5"/>
<path d="M10.405 7.86787L10.4341 7.95512L10.5261 7.95583C10.538 7.9559 10.5429 7.97112 10.5333 7.97819L10.4593 8.03282L10.4871 8.12053C10.4907 8.13189 10.4777 8.14127 10.4681 8.13435L10.3932 8.08084L10.3184 8.13435C10.3087 8.14131 10.2958 8.13185 10.2993 8.12053L10.3271 8.03282L10.2531 7.97819C10.2435 7.97112 10.2485 7.95593 10.2604 7.95583L10.3523 7.95512L10.3814 7.86787C10.3852 7.85654 10.4012 7.85654 10.405 7.86787Z" fill="#F5F5F5"/>
<path d="M7.70554 8.87982L7.72881 8.94957L7.80236 8.95017C7.81185 8.95024 7.81582 8.96241 7.80819 8.96807L7.74903 9.01173L7.77121 9.08183C7.77409 9.0909 7.76376 9.09843 7.75599 9.09287L7.69615 9.05012L7.63632 9.09287C7.62855 9.09843 7.61825 9.0909 7.62109 9.08183L7.64328 9.01173L7.58411 8.96807C7.57648 8.96241 7.58038 8.95028 7.58994 8.95017L7.66349 8.94957L7.68676 8.87982C7.68975 8.87079 7.70251 8.87079 7.70554 8.87982Z" fill="#F5F5F5"/>
<path d="M8.0592 9.86375L8.09443 9.96943L8.2058 9.97027C8.22022 9.97037 8.22619 9.98876 8.21459 9.99734L8.12498 10.0635L8.15859 10.1697C8.16295 10.1834 8.1473 10.1948 8.13556 10.1864L8.04493 10.1217L7.95429 10.1864C7.94259 10.1948 7.92691 10.1834 7.93127 10.1697L7.96488 10.0635L7.87526 9.99734C7.86366 9.98876 7.86964 9.97037 7.88405 9.97027L7.99543 9.96943L8.03065 9.86375C8.03533 9.85011 8.05466 9.85011 8.0592 9.86375Z" fill="#F5F5F5"/>
<path d="M10.7954 10.3815L10.8175 10.4479L10.8876 10.4485C10.8966 10.4485 10.9004 10.4601 10.8931 10.4655L10.8368 10.5071L10.8579 10.5739C10.8606 10.5826 10.8508 10.5897 10.8434 10.5844L10.7864 10.5437L10.7294 10.5844C10.722 10.5897 10.7121 10.5826 10.7148 10.5739L10.736 10.5071L10.6796 10.4655C10.6723 10.4601 10.6761 10.4485 10.6852 10.4485L10.7552 10.4479L10.7774 10.3815C10.7803 10.3728 10.7925 10.3728 10.7954 10.3815Z" fill="#F5F5F5"/>
<path d="M11.0402 9.87354L11.0686 9.95883L11.1586 9.95953C11.1702 9.9596 11.175 9.97447 11.1657 9.9814L11.0933 10.0348L11.1204 10.1205C11.1239 10.1317 11.1113 10.1408 11.1018 10.134L11.0287 10.0818L10.9555 10.134C10.946 10.1408 10.9334 10.1317 10.9369 10.1205L10.964 10.0348L10.8917 9.9814C10.8823 9.97451 10.8871 9.95964 10.8988 9.95953L10.9887 9.95883L11.0171 9.87354C11.0209 9.86247 11.0365 9.86247 11.0402 9.87354Z" fill="#F5F5F5"/>
</g>
<defs>
<clipPath id="clip0_2213_52930">
<rect width="18" height="18" fill="white" transform="translate(0.427734)"/>
</clipPath>
</defs>
</svg>
