<svg width="19" height="18" viewBox="0 0 19 18" fill="none" xmlns="http://www.w3.org/2000/svg">
<g clip-path="url(#clip0_2213_52693)">
<path d="M18.1173 14.8966H0.738093C0.566707 14.8966 0.427734 14.7576 0.427734 14.5863V3.41387C0.427734 3.24249 0.566707 3.10352 0.738093 3.10352H18.1174C18.2888 3.10352 18.4277 3.24249 18.4277 3.41387V14.5863C18.4277 14.7577 18.2887 14.8966 18.1173 14.8966Z" fill="#F5F5F5"/>
<path d="M14.3938 3.10352H4.46289V14.8967H14.3938V3.10352Z" fill="#F5F5F5"/>
<path d="M0.738093 3.10352C0.566707 3.10352 0.427734 3.24245 0.427734 3.41384V14.5862C0.427734 14.7576 0.566707 14.8966 0.738093 14.8966H4.46222V3.10352H0.738093Z" fill="#FF4B55"/>
<path d="M18.1167 3.10352H14.3926V14.8966H18.1167C18.2881 14.8966 18.4271 14.7576 18.4271 14.5862V3.41384C18.4271 3.24245 18.2881 3.10352 18.1167 3.10352Z" fill="#FF4B55"/>
<path d="M11.3105 10.3637L13.1521 9.31136L12.7295 9.10008C12.611 9.0408 12.5431 8.91283 12.5607 8.78145L12.6981 7.75061L11.9185 7.97743C11.7463 8.02757 11.5675 7.9216 11.5288 7.74649L11.4541 7.40899L10.7221 8.26575C10.6206 8.38451 10.4272 8.2938 10.4537 8.13982L10.7664 6.32196L10.2877 6.45289C10.1479 6.49114 10.0002 6.4275 9.93206 6.2996L9.42803 5.35492V5.35352L9.42768 5.35422L9.42729 5.35352V5.35492L8.92326 6.2996C8.85502 6.42747 8.70736 6.4911 8.56755 6.45289L8.08886 6.32196L8.4015 8.13982C8.42797 8.29373 8.23462 8.38447 8.13312 8.26575L7.40106 7.40899L7.32639 7.74649C7.28765 7.92164 7.10892 8.02753 6.93668 7.97743L6.15703 7.75061L6.29452 8.78145C6.31207 8.9128 6.24421 9.0408 6.1257 9.10008L5.70312 9.31136L7.54471 10.3637C7.73547 10.4727 7.81907 10.7039 7.74211 10.9097L7.58468 11.3307L9.16267 11.196C9.25 11.1886 9.32432 11.2589 9.32175 11.3465L9.27204 13.0355H9.5824L9.53265 11.3464C9.53009 11.2588 9.60441 11.1885 9.69173 11.1959L11.2705 11.3307L11.113 10.9097C11.0361 10.7039 11.1197 10.4726 11.3105 10.3637Z" fill="#FF4B55"/>
</g>
<defs>
<clipPath id="clip0_2213_52693">
<rect width="18" height="18" fill="white" transform="translate(0.427734)"/>
</clipPath>
</defs>
</svg>
