<svg width="19" height="18" viewBox="0 0 19 18" fill="none" xmlns="http://www.w3.org/2000/svg">
<g clip-path="url(#clip0_2484_13345)">
<path d="M18.4282 9.00009H0.428223V3.41387C0.428223 3.24249 0.567195 3.10352 0.738581 3.10352H18.1179C18.2893 3.10352 18.4282 3.24249 18.4282 3.41387L18.4282 9.00009Z" fill="#F5F5F5"/>
<path d="M1.04891 9.00006V8.6897H0.428223V9.00006V9.31042V14.5863C0.428223 14.7577 0.567195 14.8966 0.738581 14.8966H18.1179C18.2893 14.8966 18.4282 14.7577 18.4282 14.5863V9.00006H1.04891Z" fill="#FF4B55"/>
<path d="M6.01443 9.00009H0.738581C0.567195 9.00009 0.428223 8.86111 0.428223 8.68973V3.41387C0.428223 3.24249 0.567195 3.10352 0.738581 3.10352H6.01443C6.18582 3.10352 6.32479 3.24249 6.32479 3.41387V8.68973C6.32476 8.86111 6.18582 9.00009 6.01443 9.00009Z" fill="#41479B"/>
<path d="M3.49603 4.72798L3.7919 5.61511L4.72706 5.62236C4.84814 5.62327 4.89834 5.77782 4.80092 5.84971L4.04865 6.40521L4.33071 7.29684C4.3672 7.4123 4.23578 7.50775 4.13728 7.43736L3.3765 6.8936L2.61568 7.4374C2.51717 7.50782 2.38576 7.4123 2.42225 7.29688L2.70431 6.40525L1.95204 5.84975C1.85462 5.77782 1.90482 5.6233 2.0259 5.62239L2.96106 5.61515L3.25693 4.72802C3.29525 4.61313 3.45774 4.61313 3.49603 4.72798Z" fill="#F5F5F5"/>
</g>
<defs>
<clipPath id="clip0_2484_13345">
<rect width="18" height="18" fill="white" transform="translate(0.428467)"/>
</clipPath>
</defs>
</svg>
