<svg width="19" height="18" viewBox="0 0 19 18" fill="none" xmlns="http://www.w3.org/2000/svg">
<g clip-path="url(#clip0_2484_13345)">
<path d="M18.1183 14.8966H0.73907C0.567683 14.8966 0.428711 14.7576 0.428711 14.5863V3.41387C0.428711 3.24249 0.567683 3.10352 0.73907 3.10352H18.1184C18.2897 3.10352 18.4287 3.24249 18.4287 3.41387V14.5863C18.4287 14.7577 18.2897 14.8966 18.1183 14.8966Z" fill="#FF4B55"/>
<path d="M3.41689 4.94774L3.71277 5.83487L4.64792 5.84211C4.769 5.84303 4.8192 5.99757 4.72178 6.06947L3.96951 6.62497L4.25157 7.5166C4.28806 7.63205 4.15665 7.7275 4.05814 7.65712L3.29736 7.11329L2.53658 7.65709C2.43807 7.7275 2.30666 7.63198 2.34315 7.51657L2.62521 6.62494L1.87294 6.06947C1.77552 5.99754 1.82572 5.84303 1.9468 5.84211L2.88195 5.83487L3.17783 4.94774C3.21615 4.83285 3.37861 4.83285 3.41689 4.94774Z" fill="#FFE15A"/>
<path d="M6.81261 5.16633L7.02477 5.45567L7.36716 5.34858C7.41149 5.33473 7.44795 5.38528 7.42081 5.42294L7.21121 5.71407L7.41884 6.0066C7.44573 6.04446 7.40893 6.09477 7.3647 6.0806L7.02302 5.97123L6.80895 6.25913C6.78125 6.29639 6.72201 6.27692 6.72183 6.23051L6.72025 5.87174L6.38029 5.7571C6.33631 5.74223 6.33649 5.67993 6.38061 5.66537L6.72127 5.55301L6.72528 5.19428C6.72577 5.14791 6.78515 5.12889 6.81261 5.16633Z" fill="#FFE15A"/>
<path d="M5.52098 4.30397L5.87764 4.34271L6.0298 4.01783C6.04952 3.97579 6.11139 3.98299 6.12089 4.02845L6.19422 4.37959L6.55021 4.42389C6.5963 4.42962 6.60857 4.49072 6.56825 4.51382L6.25694 4.69206L6.32483 5.04432C6.33362 5.08996 6.2793 5.12047 6.24488 5.08929L5.97914 4.84829L5.66512 5.02168C5.62448 5.04415 5.5786 5.00189 5.59766 4.95953L5.74471 4.63229L5.48273 4.38719C5.44884 4.35562 5.47482 4.29898 5.52098 4.30397Z" fill="#FFE15A"/>
<path d="M6.08481 7.7806L5.87264 8.06993L5.53026 7.96285C5.48592 7.949 5.44947 7.99955 5.47661 8.0372L5.68621 8.32833L5.47858 8.62086C5.45168 8.65873 5.48849 8.70904 5.53272 8.69487L5.8744 8.5855L6.08847 8.87339C6.11617 8.91066 6.17541 8.89118 6.17558 8.84477L6.17717 8.48601L6.51713 8.37136C6.56114 8.35649 6.56093 8.29419 6.51681 8.27964L6.17615 8.16728L6.17214 7.80855C6.17158 7.76221 6.11227 7.74312 6.08481 7.7806Z" fill="#FFE15A"/>
<path d="M7.37636 6.97023L7.0197 7.00897L6.86755 6.68409C6.84782 6.64205 6.78595 6.64925 6.77646 6.69471L6.70309 7.04585L6.34709 7.09015C6.301 7.09588 6.28874 7.15698 6.32906 7.18008L6.64037 7.35832L6.57248 7.71058C6.56369 7.75622 6.61801 7.78673 6.65243 7.75555L6.91817 7.51455L7.23219 7.68794C7.27283 7.71041 7.31871 7.66815 7.29965 7.62579L7.15259 7.29855L7.41458 7.05345C7.44857 7.02188 7.42259 6.96524 7.37636 6.97023Z" fill="#FFE15A"/>
</g>
<defs>
<clipPath id="clip0_2484_13345">
<rect width="18" height="18" fill="white" transform="translate(0.428467)"/>
</clipPath>
</defs>
</svg>
