<svg width="19" height="18" viewBox="0 0 19 18" fill="none" xmlns="http://www.w3.org/2000/svg">
<g clip-path="url(#clip0_330_7742)">
<path d="M18.4287 7.03458H0.428711V3.41387C0.428711 3.24249 0.567683 3.10352 0.73907 3.10352H18.1184C18.2897 3.10352 18.4287 3.24249 18.4287 3.41387L18.4287 7.03458Z" fill="#FAB446"/>
<path d="M18.1183 14.8966H0.73907C0.567683 14.8966 0.428711 14.7576 0.428711 14.5862V10.9656H18.4287V14.5862C18.4287 14.7577 18.2897 14.8966 18.1183 14.8966Z" fill="#73AF00"/>
<path d="M18.4287 7.03442H0.428711V10.9652H18.4287V7.03442Z" fill="#F5F5F5"/>
<path d="M9.42859 10.6682C8.50876 10.6682 7.7605 9.91995 7.7605 9.00012C7.7605 8.0803 8.50876 7.33203 9.42859 7.33203C10.3484 7.33203 11.0967 8.0803 11.0967 9.00012C11.0967 9.91995 10.3484 10.6682 9.42859 10.6682ZM9.42859 7.64236C8.67983 7.64236 8.07082 8.25137 8.07082 9.00012C8.07082 9.74888 8.67983 10.3579 9.42859 10.3579C10.1773 10.3579 10.7864 9.74888 10.7864 9.00012C10.7864 8.25137 10.1773 7.64236 9.42859 7.64236Z" fill="#41479B"/>
<path d="M9.42861 9.18925C9.53305 9.18925 9.61771 9.10458 9.61771 9.00014C9.61771 8.8957 9.53305 8.81104 9.42861 8.81104C9.32417 8.81104 9.2395 8.8957 9.2395 9.00014C9.2395 9.10458 9.32417 9.18925 9.42861 9.18925Z" fill="#41479B"/>
<path d="M9.42868 9.0286L8.9481 9.07711L7.91577 9.0286V8.97186L8.9481 8.92334L9.42868 8.97186V9.0286Z" fill="#41479B"/>
<path d="M9.42871 9.0286L9.9093 9.07711L10.9416 9.0286V8.97186L9.9093 8.92334L9.42871 8.97186V9.0286Z" fill="#41479B"/>
<path d="M9.40032 9.00022L9.35181 8.51963L9.40032 7.4873H9.45706L9.50558 8.51963L9.45706 9.00022H9.40032Z" fill="#41479B"/>
<path d="M9.40032 9.00024L9.35181 9.48083L9.40032 10.5132H9.45706L9.50558 9.48083L9.45706 9.00024H9.40032Z" fill="#41479B"/>
<path d="M9.40867 9.02028L9.03454 8.71481L8.33887 7.95051L8.37898 7.9104L9.14327 8.60607L9.44875 8.9802L9.40867 9.02028Z" fill="#41479B"/>
<path d="M9.40869 9.0203L9.71416 9.39444L10.4785 10.0901L10.5186 10.05L9.8229 9.2857L9.44877 8.98022L9.40869 9.0203Z" fill="#41479B"/>
<path d="M9.40869 8.9802L9.71416 8.60607L10.4785 7.9104L10.5186 7.95051L9.8229 8.71481L9.44877 9.02028L9.40869 8.9802Z" fill="#41479B"/>
<path d="M9.40867 8.98022L9.03454 9.2857L8.33887 10.05L8.37898 10.0901L9.14327 9.39444L9.44875 9.0203L9.40867 8.98022Z" fill="#41479B"/>
<path d="M9.43949 9.02633L9.01403 9.25506L8.04175 9.60528L8.02002 9.55286L8.95521 9.11299L9.41776 8.97388L9.43949 9.02633Z" fill="#41479B"/>
<path d="M9.43945 9.02643L9.902 8.88731L10.8372 8.44744L10.8155 8.39502L9.84318 8.74525L9.41772 8.97397L9.43945 9.02643Z" fill="#41479B"/>
<path d="M9.40244 9.01102L9.17371 8.58556L8.82349 7.61328L8.8759 7.59155L9.31578 8.52674L9.45489 8.98929L9.40244 9.01102Z" fill="#41479B"/>
<path d="M9.40234 9.01098L9.54146 9.47353L9.98133 10.4087L10.0337 10.387L9.68352 9.41472L9.4548 8.98926L9.40234 9.01098Z" fill="#41479B"/>
<path d="M9.41776 9.02643L8.95521 8.88731L8.02002 8.44744L8.04175 8.39502L9.01403 8.74525L9.43949 8.97397L9.41776 9.02643Z" fill="#41479B"/>
<path d="M9.41772 9.02633L9.84318 9.25506L10.8155 9.60528L10.8372 9.55286L9.902 9.11299L9.43945 8.97388L9.41772 9.02633Z" fill="#41479B"/>
<path d="M9.40234 8.98929L9.54146 8.52674L9.98133 7.59155L10.0337 7.61328L9.68352 8.58556L9.4548 9.01102L9.40234 8.98929Z" fill="#41479B"/>
<path d="M9.40244 8.98926L9.17371 9.41472L8.82349 10.387L8.8759 10.4087L9.31578 9.47353L9.45489 9.01098L9.40244 8.98926Z" fill="#41479B"/>
<path d="M9.42868 9.25506C9.56956 9.25506 9.68377 9.14085 9.68377 8.99997C9.68377 8.85908 9.56956 8.74487 9.42868 8.74487C9.28779 8.74487 9.17358 8.85908 9.17358 8.99997C9.17358 9.14085 9.28779 9.25506 9.42868 9.25506Z" fill="#F5F5F5"/>
<path d="M9.4286 9.1531C9.51308 9.1531 9.58156 9.08461 9.58156 9.00013C9.58156 8.91565 9.51308 8.84717 9.4286 8.84717C9.34412 8.84717 9.27563 8.91565 9.27563 9.00013C9.27563 9.08461 9.34412 9.1531 9.4286 9.1531Z" fill="#41479B"/>
</g>
<defs>
<clipPath id="clip0_330_7742">
<rect width="18" height="18" fill="white" transform="translate(0.428467)"/>
</clipPath>
</defs>
</svg>
