<svg width="19" height="18" viewBox="0 0 19 18" fill="none" xmlns="http://www.w3.org/2000/svg">
<g clip-path="url(#clip0_2213_52847)">
<path d="M18.1173 14.8966H0.738093C0.566707 14.8966 0.427734 14.7577 0.427734 14.5863V3.41387C0.427734 3.24249 0.566707 3.10352 0.738093 3.10352H18.1174C18.2888 3.10352 18.4277 3.24249 18.4277 3.41387V14.5863C18.4277 14.7577 18.2887 14.8966 18.1173 14.8966Z" fill="#41479B"/>
<path d="M18.4277 5.27539H0.427734V12.7236H18.4277V5.27539Z" fill="#F5F5F5"/>
<path d="M11.0411 9.00012L11.8474 7.60368H10.2349L9.42855 6.20703L8.6222 7.60368H7.00977L7.816 9.00012L7.00977 10.3966H8.6222L9.42855 11.7932L10.2349 10.3966H11.8473L11.0411 9.00012ZM11.0563 8.0604L10.7775 8.54344L10.4986 8.0604H11.0563ZM10.5138 9.00012L9.97122 9.93985H8.88584L8.34331 9.00012L8.88588 8.0604H9.97125L10.5138 9.00012ZM9.42855 7.12046L9.70755 7.60372H9.14955L9.42855 7.12046ZM7.80074 8.0604H8.3585L8.0796 8.54344L7.80074 8.0604ZM7.80074 9.93985L8.07964 9.4568L8.35853 9.93985H7.80074ZM9.42855 10.8798L9.14955 10.3965H9.70755L9.42855 10.8798ZM10.7775 9.4568L11.0563 9.93985H10.4986L10.7775 9.4568Z" fill="#41479B"/>
</g>
<defs>
<clipPath id="clip0_2213_52847">
<rect width="18" height="18" fill="white" transform="translate(0.427734)"/>
</clipPath>
</defs>
</svg>
