<svg width="19" height="18" viewBox="0 0 19 18" fill="none" xmlns="http://www.w3.org/2000/svg">
<g clip-path="url(#clip0_2484_13345)">
<path d="M6.42848 14.8964H0.738826C0.567439 14.8964 0.428467 14.7574 0.428467 14.586V3.41363C0.428467 3.24224 0.567439 3.10327 0.738826 3.10327H6.42848V14.8964Z" fill="#73AF00"/>
<path d="M12.4286 3.10352H6.42847V14.8967H12.4286V3.10352Z" fill="#F5F5F5"/>
<path d="M18.1181 14.8964H12.4285V3.10327H18.1181C18.2895 3.10327 18.4285 3.24224 18.4285 3.41363V14.586C18.4285 14.7575 18.2895 14.8964 18.1181 14.8964Z" fill="#FF4B55"/>
<path d="M9.96372 9.27759L9.42847 9.54527V9.81291H9.69611L9.96372 9.27759Z" fill="#FFD250"/>
<path d="M9.42779 10.4819C9.35382 10.4819 9.29395 10.422 9.29395 10.348V9.81279C9.29395 9.73883 9.35382 9.67896 9.42779 9.67896C9.50175 9.67896 9.56163 9.73883 9.56163 9.81279V10.348C9.56163 10.422 9.50175 10.4819 9.42779 10.4819Z" fill="#00C3A0"/>
<path d="M9.42777 9.94662C8.90215 9.94662 8.39459 9.7438 7.99852 9.37554C7.94442 9.32523 7.94129 9.24054 7.99156 9.18647C8.04226 9.1325 8.12685 9.12962 8.18063 9.17951C8.52706 9.50164 8.96996 9.67897 9.42773 9.67897C9.8855 9.67897 10.3284 9.50164 10.6748 9.17951C10.7288 9.12948 10.8133 9.13222 10.8639 9.18647C10.9142 9.24057 10.9111 9.32526 10.8569 9.37554C10.4609 9.74383 9.95339 9.94662 9.42777 9.94662Z" fill="#00C3A0"/>
<path d="M9.42832 10.4819C9.08526 10.4819 8.75296 10.3817 8.46729 10.192L8.61547 9.96899C9.09848 10.2899 9.75815 10.2899 10.2411 9.96899L10.3893 10.192C10.1037 10.3817 9.77137 10.4819 9.42832 10.4819Z" fill="#00AADC"/>
<path d="M9.21654 8.67529L8.92105 9.13257L8.87085 9.28308L9.64032 9.10466L9.21654 8.67529Z" fill="#732D37"/>
<path d="M8.60926 9.43011C8.25552 9.43011 7.8309 9.13241 7.71826 8.46908L7.98225 8.4244C8.07584 8.976 8.41516 9.16285 8.61893 9.16236C8.6814 9.16064 8.74658 9.13909 8.75171 9.09493C8.75773 9.04213 8.75917 9.02961 8.61921 8.98229C8.54313 8.95652 8.45689 8.92741 8.39639 8.85815C8.1516 8.57863 8.48301 8.28279 8.64224 8.14062C8.67033 8.11551 8.68196 8.09421 8.67898 8.08612C8.67022 8.06324 8.6177 8.02864 8.5585 8.02864C8.38848 8.02864 8.25949 7.9326 8.22202 7.77812C8.18306 7.61816 8.25664 7.44958 8.39674 7.3772L8.51961 7.61503C8.48678 7.63201 8.47377 7.68035 8.4821 7.71487C8.48537 7.72872 8.49335 7.761 8.55857 7.761C8.72243 7.761 8.87835 7.85771 8.92904 7.99074C8.95073 8.04745 8.98339 8.19486 8.82058 8.3403C8.6448 8.49728 8.53962 8.6154 8.59791 8.68192C8.61109 8.69693 8.66769 8.71616 8.70506 8.72871C8.82554 8.76949 9.0498 8.84529 9.01767 9.12559C8.99753 9.30186 8.8402 9.42417 8.62642 9.42997C8.62065 9.42997 8.61489 9.43011 8.60926 9.43011Z" fill="#AAD264"/>
<path d="M9.69611 7.93943C9.69611 7.93943 9.96376 7.40418 9.42847 7.13653C9.42847 7.13653 11.3019 6.86889 11.0343 9.27762L11.0342 9.27751C10.8585 9.13699 10.5977 8.88018 10.5046 8.67543L9.69611 8.20704V7.93943Z" fill="#874150"/>
<path d="M9.42847 8.47461L10.7666 9.27751C10.7666 9.27751 10.7666 9.27751 10.2314 9.54515L9.42847 8.74229V8.47461Z" fill="#732D37"/>
<path d="M8.89307 7.67166C9.04086 7.67166 9.16071 7.79151 9.16071 7.93931L9.16043 7.93959C9.00075 8.09927 8.9612 8.34315 9.06217 8.54512L9.12264 8.66609C9.14784 8.71651 9.18103 8.76256 9.2209 8.80243L9.96364 9.54517V9.17529C9.96364 8.7145 9.85638 8.26004 9.6503 7.8479C9.51428 7.5759 9.23626 7.40405 8.93216 7.40405H8.8931V7.67173H8.89307V7.67166V7.67166Z" fill="#783C46"/>
<path d="M8.89313 7.40405L8.62549 7.6717V7.93934C8.62549 7.93934 8.94386 7.77794 9.05116 7.72651C9.12615 7.69058 9.11251 7.6056 9.06948 7.56465C9.03597 7.53279 8.89313 7.40405 8.89313 7.40405Z" fill="#FFD250"/>
<path d="M9.42845 11.0171C8.17404 11.0171 7.15356 9.9966 7.15356 8.74219H7.42121C7.42121 9.84908 8.3216 10.7495 9.42849 10.7495C10.5354 10.7495 11.4358 9.84908 11.4358 8.74219H11.7034C11.7033 9.9966 10.6829 11.0171 9.42845 11.0171Z" fill="#AAD264"/>
<path d="M7.43626 9.71797C7.53656 9.71797 7.61787 9.63666 7.61787 9.53635C7.61787 9.43605 7.53656 9.35474 7.43626 9.35474C7.33595 9.35474 7.25464 9.43605 7.25464 9.53635C7.25464 9.63666 7.33595 9.71797 7.43626 9.71797Z" fill="#FFE15A"/>
<path d="M7.83762 10.3591C7.93793 10.3591 8.01924 10.2778 8.01924 10.1775C8.01924 10.0772 7.93793 9.99585 7.83762 9.99585C7.73732 9.99585 7.65601 10.0772 7.65601 10.1775C7.65601 10.2778 7.73732 10.3591 7.83762 10.3591Z" fill="#FFE15A"/>
<path d="M8.48972 10.8439C8.59003 10.8439 8.67134 10.7626 8.67134 10.6623C8.67134 10.562 8.59003 10.4807 8.48972 10.4807C8.38942 10.4807 8.30811 10.562 8.30811 10.6623C8.30811 10.7626 8.38942 10.8439 8.48972 10.8439Z" fill="#FFE15A"/>
<path d="M11.4411 9.71797C11.5414 9.71797 11.6228 9.63666 11.6228 9.53635C11.6228 9.43605 11.5414 9.35474 11.4411 9.35474C11.3408 9.35474 11.2595 9.43605 11.2595 9.53635C11.2595 9.63666 11.3408 9.71797 11.4411 9.71797Z" fill="#FFE15A"/>
<path d="M11.039 10.3591C11.1393 10.3591 11.2207 10.2778 11.2207 10.1775C11.2207 10.0772 11.1393 9.99585 11.039 9.99585C10.9387 9.99585 10.8574 10.0772 10.8574 10.1775C10.8574 10.2778 10.9387 10.3591 11.039 10.3591Z" fill="#FFE15A"/>
<path d="M10.3869 10.8439C10.4872 10.8439 10.5686 10.7626 10.5686 10.6623C10.5686 10.562 10.4872 10.4807 10.3869 10.4807C10.2866 10.4807 10.2053 10.562 10.2053 10.6623C10.2053 10.7626 10.2866 10.8439 10.3869 10.8439Z" fill="#FFE15A"/>
<path d="M9.56214 10.6156H9.2945C9.1467 10.6156 9.02686 10.4958 9.02686 10.348C9.02686 10.2002 9.1467 10.0803 9.2945 10.0803H9.56214C9.70994 10.0803 9.82979 10.2002 9.82979 10.348C9.82979 10.4958 9.70994 10.6156 9.56214 10.6156Z" fill="#FFB478"/>
<path d="M10.5046 8.67539C10.5938 8.93744 10.7834 9.17721 11.0342 9.27748L11.0343 9.27758C11.3019 6.86892 9.42847 7.13653 9.42847 7.13653C10.7666 7.13653 10.5046 8.67539 10.5046 8.67539Z" fill="#9B4B5A"/>
</g>
<defs>
<clipPath id="clip0_2484_13345">
<rect width="18" height="18" fill="white" transform="translate(0.428467)"/>
</clipPath>
</defs>
</svg>
