<svg width="19" height="18" viewBox="0 0 19 18" fill="none" xmlns="http://www.w3.org/2000/svg">
<g clip-path="url(#clip0_2484_13345)">
<path d="M18.1181 14.8966H0.738826C0.567439 14.8966 0.428467 14.7577 0.428467 14.5863V3.41387C0.428467 3.24249 0.567439 3.10352 0.738826 3.10352H18.1181C18.2895 3.10352 18.4285 3.24249 18.4285 3.41387V14.5863C18.4284 14.7577 18.2895 14.8966 18.1181 14.8966Z" fill="#41479B"/>
<path d="M9.11809 3.10352H8.57901L5.70429 4.98697V3.10352H4.15256V4.98697L1.27784 3.10352H0.738826C0.567439 3.10352 0.428467 3.24245 0.428467 3.41384V3.66L2.89485 5.27589H0.428467V6.82761H2.89485L0.428467 8.44353V8.68969C0.428467 8.86108 0.567439 9.00005 0.738826 9.00005H1.27791L4.15263 7.11659V9.00005H5.70436V7.11659L8.57904 9.00005H9.11813C9.28951 9.00005 9.42849 8.86108 9.42849 8.68969V8.44353L6.9621 6.82764H9.42845V5.27592H6.96207L9.42845 3.66004V3.41387C9.42845 3.24245 9.28948 3.10352 9.11809 3.10352Z" fill="#F5F5F5"/>
<path d="M9.42845 5.58628H5.39396V3.10352H4.46296V5.58628H0.428467V6.51729H4.46296V9.00005H5.39396V6.51729H9.42845V5.58628Z" fill="#FF4B55"/>
<path d="M3.84224 5.27596L0.576369 3.15601C0.489463 3.21099 0.428467 3.30342 0.428467 3.41388V3.42998L3.27222 5.27596H3.84224Z" fill="#FF4B55"/>
<path d="M6.27437 5.27592L9.38126 3.25915C9.32726 3.16778 9.23199 3.10352 9.11812 3.10352H9.051L5.70435 5.27592H6.27437Z" fill="#FF4B55"/>
<path d="M3.5741 6.82764L0.473145 8.84054C0.526617 8.93413 0.623367 9.00004 0.73889 9.00004H0.797425L4.14415 6.82764H3.5741V6.82764Z" fill="#FF4B55"/>
<path d="M9.42351 8.71405L6.51729 6.82764H5.94727L9.24752 8.96988C9.34638 8.924 9.41419 8.82785 9.42351 8.71405Z" fill="#FF4B55"/>
<path d="M14.3317 12.9416C14.3192 12.9416 14.3065 12.9376 14.2957 12.93L13.9284 12.6676L13.561 12.93C13.5503 12.9376 13.5375 12.9416 13.5249 12.9416C13.5121 12.9416 13.4994 12.9376 13.4885 12.9297C13.4669 12.914 13.4577 12.8861 13.4657 12.8606L13.6019 12.4303L13.2389 12.1624C13.2174 12.1463 13.2084 12.1187 13.2166 12.0933C13.225 12.0678 13.2484 12.0505 13.2753 12.0503L13.7267 12.0466L13.8695 11.6184C13.878 11.5932 13.9018 11.5759 13.9284 11.5759C13.9551 11.5759 13.9789 11.5932 13.9874 11.6184L14.1302 12.0466L14.5816 12.0503C14.6084 12.0506 14.6319 12.0678 14.6402 12.0933C14.6484 12.1187 14.6395 12.1463 14.618 12.1624L14.2549 12.4303L14.3912 12.8606C14.3992 12.8861 14.39 12.914 14.3684 12.9297C14.3574 12.9376 14.3445 12.9416 14.3317 12.9416Z" fill="#FF4B55"/>
<path d="M13.9284 11.6378L14.0852 12.1081L14.581 12.112L14.1821 12.4065L14.3317 12.8791L13.9284 12.5909L13.525 12.8792L13.6746 12.4065L13.2758 12.112L13.7715 12.1082L13.9284 11.6378ZM13.9284 11.5137C13.875 11.5137 13.8275 11.5478 13.8106 11.5985L13.6818 11.9847L13.2748 11.9879C13.2214 11.9882 13.1742 12.0228 13.1577 12.0736C13.1412 12.1245 13.1591 12.1801 13.202 12.2119L13.5294 12.4537L13.4067 12.8418C13.3906 12.8927 13.4089 12.9483 13.4521 12.9796C13.4738 12.9954 13.4994 13.0033 13.525 13.0033C13.5503 13.0033 13.5756 12.9956 13.5973 12.9802L13.9284 12.7435L14.2596 12.9802C14.2812 12.9956 14.3065 13.0033 14.3318 13.0033C14.3574 13.0033 14.383 12.9954 14.4048 12.9796C14.448 12.9482 14.4662 12.8927 14.4501 12.8418L14.3274 12.4537L14.6548 12.2119C14.6978 12.1801 14.7156 12.1245 14.6991 12.0736C14.6826 12.0228 14.6355 11.9882 14.582 11.9879L14.175 11.9847L14.0462 11.5985C14.0293 11.5479 13.9818 11.5137 13.9284 11.5137Z" fill="#F5F5F5"/>
<path d="M14.3317 7.93812C14.319 7.93812 14.3065 7.93414 14.2957 7.92659L13.9284 7.66386L13.561 7.92662C13.5503 7.93418 13.5375 7.93815 13.5249 7.93815C13.5122 7.93815 13.4994 7.93418 13.4885 7.9263C13.4669 7.91055 13.4577 7.88267 13.4657 7.85722L13.6019 7.42684L13.2389 7.15863C13.2174 7.14257 13.2084 7.11469 13.2166 7.08955C13.225 7.0641 13.2486 7.0468 13.2753 7.04652L13.7267 7.04318L13.8695 6.61494C13.878 6.58981 13.9018 6.57251 13.9284 6.57251C13.9551 6.57251 13.9789 6.58977 13.9874 6.61494L14.1302 7.04318L14.5816 7.04652C14.6083 7.04684 14.6319 7.0641 14.6402 7.08955C14.6484 7.11469 14.6395 7.14257 14.618 7.15863L14.2549 7.42684L14.3912 7.85722C14.3992 7.88267 14.39 7.91055 14.3684 7.9263C14.3574 7.93418 14.3445 7.93812 14.3317 7.93812Z" fill="#FF4B55"/>
<path d="M13.9284 6.63439L14.0852 7.10471L14.581 7.10854L14.1821 7.40305L14.3317 7.87576L13.9284 7.58744L13.525 7.87576L13.6746 7.40305L13.2758 7.10854L13.7715 7.10471L13.9284 6.63439ZM13.9284 6.51025C13.875 6.51025 13.8275 6.54443 13.8106 6.59512L13.6818 6.98128L13.2748 6.98444C13.2214 6.98483 13.1742 7.01939 13.1577 7.07022C13.1412 7.12106 13.1591 7.17671 13.202 7.20846L13.5294 7.45026L13.4067 7.83835C13.3906 7.88929 13.4089 7.94484 13.4521 7.97623C13.4738 7.99202 13.4994 7.99993 13.525 7.99993C13.5503 7.99993 13.5756 7.99219 13.5973 7.97676L13.9284 7.74005L14.2596 7.97676C14.2812 7.99216 14.3065 7.99993 14.3318 7.99993C14.3574 7.99993 14.383 7.99202 14.4048 7.97623C14.448 7.9448 14.4662 7.88929 14.4501 7.83835L14.3274 7.45026L14.6548 7.20846C14.6978 7.17671 14.7156 7.12106 14.6991 7.07022C14.6826 7.01939 14.6355 6.98483 14.582 6.98444L14.175 6.98128L14.0462 6.59512C14.0293 6.54443 13.9818 6.51025 13.9284 6.51025Z" fill="#F5F5F5"/>
<path d="M16.5043 9.48966C16.4916 9.48966 16.479 9.48569 16.4682 9.47813L16.101 9.21538L15.7336 9.47813C15.7229 9.48569 15.7101 9.48966 15.6976 9.48966C15.6848 9.48966 15.672 9.48569 15.6611 9.47782C15.6395 9.46207 15.6303 9.43419 15.6383 9.40873L15.7745 8.97835L15.4115 8.71015C15.39 8.69408 15.381 8.6662 15.3892 8.64106C15.3976 8.61561 15.4212 8.59832 15.4479 8.59803L15.8993 8.59469L16.0421 8.16646C16.0506 8.14132 16.0744 8.12402 16.101 8.12402C16.1277 8.12402 16.1515 8.14129 16.16 8.16646L16.3028 8.59469L16.7542 8.59803C16.7809 8.59835 16.8045 8.61561 16.8128 8.64106C16.821 8.6662 16.8121 8.69408 16.7906 8.71015L16.4275 8.97835L16.5638 9.40873C16.5718 9.43419 16.5626 9.46207 16.541 9.47782C16.5299 9.48569 16.5171 9.48966 16.5043 9.48966Z" fill="#FF4B55"/>
<path d="M16.101 8.18615L16.2578 8.65647L16.7536 8.6603L16.3548 8.9548L16.5043 9.42751L16.101 9.1392L15.6976 9.42751L15.8472 8.95484L15.4483 8.66033L15.9441 8.6565L16.101 8.18615ZM16.101 8.06201C16.0476 8.06201 16.0001 8.09618 15.9832 8.14688L15.8544 8.53303L15.4474 8.5362C15.394 8.53659 15.3468 8.57114 15.3303 8.62198C15.3138 8.67282 15.3317 8.72847 15.3746 8.76021L15.702 9.00202L15.5793 9.39011C15.5632 9.44105 15.5815 9.4966 15.6247 9.52799C15.6464 9.54377 15.672 9.55169 15.6977 9.55169C15.7229 9.55169 15.7482 9.54395 15.7698 9.52852L16.101 9.29181L16.4322 9.52852C16.4538 9.54392 16.4791 9.55169 16.5044 9.55169C16.53 9.55169 16.5556 9.54377 16.5774 9.52799C16.6206 9.49656 16.6389 9.44105 16.6228 9.39011L16.5 9.00202L16.8274 8.76021C16.8704 8.72847 16.8883 8.67282 16.8717 8.62198C16.8552 8.57114 16.8081 8.53659 16.7546 8.5362L16.3476 8.53303L16.2188 8.14688C16.2019 8.09618 16.1544 8.06201 16.101 8.06201Z" fill="#F5F5F5"/>
<path d="M12.1596 10.1105C12.1469 10.1105 12.1343 10.1065 12.1235 10.099L11.7562 9.83623L11.3889 10.099C11.3781 10.1065 11.3654 10.1105 11.3528 10.1105C11.3401 10.1105 11.3272 10.1065 11.3163 10.0987C11.2948 10.0829 11.2856 10.055 11.2936 10.0296L11.4298 9.5992L11.0668 9.331C11.0452 9.31493 11.0363 9.28705 11.0445 9.26191C11.0528 9.23646 11.0765 9.21917 11.1031 9.21888L11.5546 9.21554L11.6974 8.78731C11.7059 8.76217 11.7296 8.74487 11.7563 8.74487C11.783 8.74487 11.8068 8.76213 11.8153 8.78731L11.958 9.21554L12.4095 9.21888C12.4362 9.2192 12.4598 9.23646 12.4681 9.26191C12.4763 9.28705 12.4673 9.31493 12.4459 9.331L12.0828 9.5992L12.219 10.0296C12.2271 10.055 12.2178 10.0829 12.1963 10.0987C12.1852 10.1066 12.1724 10.1105 12.1596 10.1105Z" fill="#FF4B55"/>
<path d="M11.756 8.80675L11.9129 9.27707L12.4086 9.28091L12.0098 9.57541L12.1593 10.0481L11.756 9.7598L11.3526 10.0481L11.5022 9.57541L11.1034 9.28091L11.5991 9.27707L11.756 8.80675ZM11.756 8.68262C11.7026 8.68262 11.6552 8.71679 11.6383 8.76748L11.5095 9.15364L11.1024 9.1568C11.049 9.15719 11.0019 9.19175 10.9853 9.24258C10.9688 9.29342 10.9867 9.34907 11.0296 9.38082L11.3571 9.62262L11.2343 10.0107C11.2182 10.0617 11.2365 10.1172 11.2797 10.1486C11.3015 10.1644 11.3271 10.1723 11.3527 10.1723C11.378 10.1723 11.4033 10.1646 11.4249 10.1491L11.756 9.91242L12.0872 10.1491C12.1088 10.1645 12.1341 10.1723 12.1594 10.1723C12.185 10.1723 12.2106 10.1644 12.2324 10.1486C12.2756 10.1172 12.2938 10.0617 12.2777 10.0107L12.155 9.62262L12.4824 9.38082C12.5254 9.34907 12.5432 9.29342 12.5267 9.24258C12.5102 9.19175 12.4631 9.15719 12.4096 9.1568L12.0026 9.15364L11.8738 8.76748C11.8569 8.71679 11.8094 8.68262 11.756 8.68262Z" fill="#F5F5F5"/>
</g>
<defs>
<clipPath id="clip0_2484_13345">
<rect width="18" height="18" fill="white" transform="translate(0.428467)"/>
</clipPath>
</defs>
</svg>
