<svg width="19" height="18" viewBox="0 0 19 18" fill="none" xmlns="http://www.w3.org/2000/svg">
<g clip-path="url(#clip0_2484_13345)">
<path d="M18.4287 9.00009H0.428711V3.41387C0.428711 3.24249 0.567683 3.10352 0.73907 3.10352H18.1184C18.2897 3.10352 18.4287 3.24249 18.4287 3.41387L18.4287 9.00009Z" fill="#FF4B55"/>
<path d="M0.428955 9H18.4289V14.5862C18.4289 14.7576 18.2899 14.8966 18.1186 14.8966H0.739314C0.567927 14.8966 0.428955 14.7576 0.428955 14.5862V9Z" fill="#F5F5F5"/>
<path d="M2.98022 6.05604C2.98022 5.03553 3.72904 4.18957 4.70684 4.03309C4.75993 4.02458 4.76232 3.95156 4.70994 3.93946C4.46785 3.88381 4.21075 3.86796 3.94378 3.90431C2.88916 4.04796 2.07396 4.96061 2.05906 6.02486C2.04207 7.24007 3.02174 8.22957 4.23118 8.22957C4.39582 8.22957 4.55567 8.21034 4.70952 8.17494C4.76186 8.16292 4.75923 8.08972 4.70621 8.08121C3.7288 7.92484 2.98022 7.08053 2.98022 6.05604Z" fill="#F5F5F5"/>
<path d="M4.72287 6.60218L4.63101 6.87766L4.34065 6.87991C4.30307 6.88023 4.28746 6.92818 4.31773 6.9505L4.55131 7.12301L4.4637 7.39987C4.45238 7.43573 4.49319 7.46537 4.52374 7.4435L4.75999 7.27464L4.99624 7.4435C5.02683 7.46537 5.06761 7.43569 5.05629 7.39987L4.96868 7.12301L5.20226 6.9505C5.23253 6.92814 5.21692 6.88023 5.17934 6.87991L4.88898 6.87766L4.79712 6.60218C4.7852 6.56653 4.73475 6.56653 4.72287 6.60218Z" fill="#F5F5F5"/>
<path d="M6.15817 6.60218L6.06631 6.87766L5.77595 6.87991C5.73837 6.88023 5.72276 6.92818 5.75303 6.9505L5.98661 7.12301L5.899 7.39987C5.88768 7.43573 5.9285 7.46537 5.95905 7.4435L6.1953 7.27464L6.43155 7.4435C6.46213 7.46537 6.50291 7.43569 6.49159 7.39987L6.40398 7.12301L6.63756 6.9505C6.66783 6.92814 6.65222 6.88023 6.61464 6.87991L6.32428 6.87766L6.23242 6.60218C6.2205 6.56653 6.17009 6.56653 6.15817 6.60218Z" fill="#F5F5F5"/>
<path d="M5.44699 4.38709L5.35513 4.66257L5.06477 4.66482C5.02719 4.66514 5.01158 4.71309 5.04185 4.73542L5.27543 4.90793L5.18782 5.18478C5.1765 5.22064 5.21731 5.25028 5.24786 5.22841L5.48411 5.05956L5.72036 5.22841C5.75095 5.25028 5.79173 5.22061 5.78041 5.18478L5.6928 4.90793L5.92638 4.73542C5.95665 4.71306 5.94104 4.66514 5.90346 4.66482L5.6131 4.66257L5.52124 4.38709C5.50932 4.35144 5.45887 4.35144 5.44699 4.38709Z" fill="#F5F5F5"/>
<path d="M4.3027 5.23572L4.21084 5.5112L3.92048 5.51345C3.8829 5.51377 3.86729 5.56172 3.89756 5.58405L4.13114 5.75656L4.04353 6.03341C4.03221 6.06927 4.07303 6.09891 4.10358 6.07704L4.33983 5.90819L4.57608 6.07704C4.60666 6.09891 4.64744 6.06924 4.63612 6.03341L4.54851 5.75656L4.78209 5.58405C4.81236 5.56169 4.79675 5.51377 4.75917 5.51345L4.46882 5.5112L4.37695 5.23572C4.36503 5.20007 4.31462 5.20007 4.3027 5.23572Z" fill="#F5F5F5"/>
<path d="M6.58176 5.23572L6.48989 5.5112L6.19954 5.51345C6.16196 5.51377 6.14635 5.56172 6.17662 5.58405L6.41019 5.75656L6.32258 6.03341C6.31126 6.06927 6.35208 6.09891 6.38263 6.07704L6.61888 5.90819L6.85513 6.07704C6.88572 6.09891 6.9265 6.06924 6.91518 6.03341L6.82757 5.75656L7.06114 5.58405C7.09141 5.56169 7.0758 5.51377 7.03822 5.51345L6.74787 5.5112L6.65601 5.23572C6.64409 5.20007 6.59364 5.20007 6.58176 5.23572Z" fill="#F5F5F5"/>
</g>
<defs>
<clipPath id="clip0_2484_13345">
<rect width="18" height="18" fill="white" transform="translate(0.428467)"/>
</clipPath>
</defs>
</svg>
