<svg width="19" height="18" viewBox="0 0 19 18" fill="none" xmlns="http://www.w3.org/2000/svg">
<g clip-path="url(#clip0_2484_43532)">
<path d="M0.739314 14.8966H18.1186C18.29 14.8966 18.429 14.7577 18.429 14.5863V3.41387C18.429 3.24249 18.29 3.10352 18.1186 3.10352H0.739314C0.567927 3.10355 0.428955 3.24249 0.428955 3.41387V14.5863C0.428955 14.7577 0.567927 14.8966 0.739314 14.8966Z" fill="#C8414B"/>
<path d="M18.4289 5.58643H0.428955V12.4141H18.4289V5.58643Z" fill="#FFD250"/>
<path d="M8.0325 9.0001L8.29564 7.816C8.3199 7.70695 8.23689 7.60352 8.12517 7.60352H7.93982C7.82813 7.60352 7.74516 7.70695 7.76935 7.816L8.0325 9.0001Z" fill="#C8414B"/>
<path d="M8.34285 8.37915H7.72217V11.0169H8.34285V8.37915Z" fill="#F5F5F5"/>
<path d="M8.49769 8.06909H7.56665V8.37945H8.49769V8.06909Z" fill="#FAB446"/>
<path d="M8.49881 9H6.94702V9.31036H8.49881V9Z" fill="#C8414B"/>
<path d="M8.49867 10.2415L7.56763 9.93121V9.62085L8.49867 9.93121V10.2415Z" fill="#C8414B"/>
<path d="M3.37795 9.0001L3.6411 7.816C3.66536 7.70695 3.58235 7.60352 3.47063 7.60352H3.28528C3.17359 7.60352 3.09062 7.70695 3.11481 7.816L3.37795 9.0001Z" fill="#C8414B"/>
<path d="M4.46368 8.06909C4.29229 8.06909 4.15332 8.20806 4.15332 8.37945V10.3967C4.15332 10.7737 4.50523 11.4829 5.70504 11.4829C6.90485 11.4829 7.25677 10.7738 7.25677 10.3967V8.37945C7.25677 8.20806 7.1178 8.06909 6.94641 8.06909H4.46368V8.06909Z" fill="#F5F5F5"/>
<path d="M5.70553 9.62082H4.15381V8.37945C4.15381 8.20806 4.29278 8.06909 4.46417 8.06909H5.70553V9.62082Z" fill="#C8414B"/>
<path d="M5.70557 9.62085H7.25729V10.3967C7.25729 10.8252 6.90995 11.1726 6.48143 11.1726C6.05291 11.1726 5.70557 10.8252 5.70557 10.3967V9.62085V9.62085Z" fill="#C8414B"/>
<path d="M4.15332 9.62085H5.70504V10.3967C5.70504 10.8252 5.3577 11.1726 4.92918 11.1726C4.50066 11.1726 4.15332 10.8252 4.15332 10.3967V9.62085V9.62085Z" fill="#FAB446"/>
<path d="M5.39385 11.0139V9.62085H5.0835V11.1569C5.19895 11.1335 5.30326 11.0824 5.39385 11.0139Z" fill="#C8414B"/>
<path d="M4.77325 11.1569V9.62085H4.46289V11.0139C4.55352 11.0824 4.65783 11.1335 4.77325 11.1569Z" fill="#C8414B"/>
<path d="M5.39466 9H4.46362V9.31036H5.39466V9Z" fill="#FFB441"/>
<path d="M5.39466 8.37915H4.46362V8.68951H5.39466V8.37915Z" fill="#FAB446"/>
<path d="M5.23909 8.56372H4.61841V9.12594H5.23909V8.56372Z" fill="#FAB446"/>
<path d="M3.68758 8.37915H3.06689V11.0169H3.68758V8.37915Z" fill="#F5F5F5"/>
<path d="M3.84217 10.8623H2.91113V11.1727H3.84217V10.8623Z" fill="#FAB446"/>
<path d="M3.84217 8.06909H2.91113V8.37945H3.84217V8.06909Z" fill="#FAB446"/>
<path d="M3.9982 11.1724H2.75684V11.4827H3.9982V11.1724Z" fill="#5064AA"/>
<path d="M8.65321 10.8623H7.72217V11.1727H8.65321V10.8623Z" fill="#FAB446"/>
<path d="M8.65299 11.1724H7.41162V11.4827H8.65299V11.1724Z" fill="#5064AA"/>
<path d="M6.63601 7.75879H4.77393V8.06915H6.63601V7.75879Z" fill="#FAB446"/>
<path d="M5.86016 6.82788H5.5498V7.75892H5.86016V6.82788Z" fill="#FFB441"/>
<path d="M5.39446 7.29307C5.13775 7.29307 4.92896 7.08424 4.92896 6.82756C4.92896 6.57085 5.13778 6.36206 5.39446 6.36206C5.65117 6.36206 5.85996 6.57089 5.85996 6.82756C5.86 7.08424 5.65117 7.29307 5.39446 7.29307ZM5.39446 6.67238C5.30885 6.67238 5.23928 6.74192 5.23928 6.82756C5.23928 6.91317 5.30882 6.98274 5.39446 6.98274C5.4801 6.98274 5.54964 6.9132 5.54964 6.82756C5.54964 6.74196 5.4801 6.67238 5.39446 6.67238Z" fill="#F5F5F5"/>
<path d="M6.01531 7.29307C5.7586 7.29307 5.5498 7.08424 5.5498 6.82756C5.5498 6.57085 5.75863 6.36206 6.01531 6.36206C6.27202 6.36206 6.48081 6.57089 6.48081 6.82756C6.48081 7.08424 6.27198 7.29307 6.01531 7.29307ZM6.01531 6.67238C5.9297 6.67238 5.86013 6.74192 5.86013 6.82756C5.86013 6.91317 5.92967 6.98274 6.01531 6.98274C6.10091 6.98274 6.17049 6.9132 6.17049 6.82756C6.17045 6.74196 6.10091 6.67238 6.01531 6.67238Z" fill="#F5F5F5"/>
<path d="M6.63591 7.60337C6.3792 7.60337 6.17041 7.39454 6.17041 7.13787C6.17041 6.88116 6.37924 6.67236 6.63591 6.67236C6.89262 6.67236 7.10142 6.88119 7.10142 7.13787C7.10142 7.39454 6.89259 7.60337 6.63591 7.60337ZM6.63591 6.98269C6.55031 6.98269 6.48073 7.05223 6.48073 7.13787C6.48073 7.22347 6.55027 7.29305 6.63591 7.29305C6.72152 7.29305 6.79109 7.22351 6.79109 7.13787C6.79109 7.05223 6.72152 6.98269 6.63591 6.98269Z" fill="#F5F5F5"/>
<path d="M4.77385 7.60337C4.51714 7.60337 4.30835 7.39454 4.30835 7.13787C4.30835 6.88116 4.51718 6.67236 4.77385 6.67236C5.03056 6.67236 5.23936 6.88119 5.23936 7.13787C5.23939 7.39454 5.03056 7.60337 4.77385 7.60337ZM4.77385 6.98269C4.68825 6.98269 4.61867 7.05223 4.61867 7.13787C4.61867 7.22347 4.68821 7.29305 4.77385 7.29305C4.85949 7.29305 4.92903 7.22347 4.92903 7.13783C4.92903 7.05223 4.85949 6.98269 4.77385 6.98269Z" fill="#F5F5F5"/>
<path d="M6.63585 10.2415V10.3967C6.63585 10.4822 6.56625 10.5518 6.48068 10.5518C6.3951 10.5518 6.3255 10.4822 6.3255 10.3967V10.2415H6.63585ZM6.94618 9.93115H6.01514V10.3967C6.01514 10.6534 6.22396 10.8622 6.48064 10.8622C6.73735 10.8622 6.94614 10.6533 6.94614 10.3967V9.93115H6.94618Z" fill="#FAB446"/>
<path d="M6.48077 9.31047C6.30938 9.31047 6.17041 9.1715 6.17041 9.00011V8.68975C6.17041 8.51837 6.30938 8.37939 6.48077 8.37939C6.65216 8.37939 6.79113 8.51837 6.79113 8.68975V9.00011C6.79113 9.1715 6.65216 9.31047 6.48077 9.31047Z" fill="#FFA0D2"/>
<path d="M5.70501 10.086C5.9621 10.086 6.17051 9.87762 6.17051 9.62053C6.17051 9.36344 5.9621 9.15503 5.70501 9.15503C5.44792 9.15503 5.2395 9.36344 5.2395 9.62053C5.2395 9.87762 5.44792 10.086 5.70501 10.086Z" fill="#5064AA"/>
<path d="M5.86016 6.20679H5.5498V7.13783H5.86016V6.20679Z" fill="#FAB446"/>
<path d="M4.77374 7.75868L4.46338 7.44832L4.64517 7.26653C4.92618 6.98552 5.30734 6.82764 5.70478 6.82764C6.10222 6.82764 6.48335 6.98552 6.76439 7.26653L6.94618 7.44832L6.63582 7.75868H4.77374Z" fill="#C8414B"/>
<path d="M5.7045 7.60333C5.7902 7.60333 5.85967 7.53385 5.85967 7.44815C5.85967 7.36244 5.7902 7.29297 5.7045 7.29297C5.61879 7.29297 5.54932 7.36244 5.54932 7.44815C5.54932 7.53385 5.61879 7.60333 5.7045 7.60333Z" fill="#FFD250"/>
<path d="M5.08365 7.60333C5.16935 7.60333 5.23883 7.53385 5.23883 7.44815C5.23883 7.36244 5.16935 7.29297 5.08365 7.29297C4.99794 7.29297 4.92847 7.36244 4.92847 7.44815C4.92847 7.53385 4.99794 7.60333 5.08365 7.60333Z" fill="#FFD250"/>
<path d="M6.3251 7.60333C6.4108 7.60333 6.48028 7.53385 6.48028 7.44815C6.48028 7.36244 6.4108 7.29297 6.3251 7.29297C6.2394 7.29297 6.16992 7.36244 6.16992 7.44815C6.16992 7.53385 6.2394 7.60333 6.3251 7.60333Z" fill="#FFD250"/>
<path d="M4.46293 9H2.91113V9.31036H4.46293V9Z" fill="#C8414B"/>
<path d="M2.91113 10.2413L3.84214 9.93096V9.62061L2.91113 9.93096V10.2413Z" fill="#C8414B"/>
</g>
<defs>
<clipPath id="clip0_2484_43532">
<rect width="18" height="18" fill="white" transform="translate(0.428467)"/>
</clipPath>
</defs>
</svg>
