<svg width="19" height="18" viewBox="0 0 19 18" fill="none" xmlns="http://www.w3.org/2000/svg">
<g clip-path="url(#clip0_2484_13345)">
<path d="M18.1181 14.8966H0.738826C0.567439 14.8966 0.428467 14.7577 0.428467 14.5863V3.41387C0.428467 3.24249 0.567439 3.10352 0.738826 3.10352H18.1181C18.2895 3.10352 18.4285 3.24249 18.4285 3.41387V14.5863C18.4284 14.7577 18.2895 14.8966 18.1181 14.8966Z" fill="#FF4B55"/>
<path d="M0.738826 3.10352H9.11813C9.28951 3.10352 9.42849 3.24249 9.42849 3.41387V8.68973C9.42849 8.86111 9.28951 9.00009 9.11813 9.00009H0.738826C0.567439 9.00005 0.428467 8.86108 0.428467 8.68969V3.41384C0.428467 3.24245 0.567439 3.10352 0.738826 3.10352Z" fill="#41479B"/>
<path d="M3.81748 6.05176C3.81748 5.74513 3.94172 5.46754 4.14261 5.26655L3.21188 5.00031C3.15785 4.98488 3.11914 5.05196 3.1595 5.09102L3.85598 5.76443L2.91611 5.99942C2.86162 6.01302 2.86162 6.09051 2.91611 6.10415L3.85598 6.33913L3.1595 7.01255C3.1191 7.0516 3.15785 7.11868 3.21188 7.10325L4.14261 6.83701C3.94172 6.63599 3.81748 6.3584 3.81748 6.05176Z" fill="#F5F5F5"/>
<path d="M4.14305 5.26618C4.34404 5.06529 4.62163 4.94105 4.92826 4.94105C5.2349 4.94105 5.51249 5.06529 5.71348 5.26618L5.97971 4.33545C5.99515 4.28142 5.92807 4.24271 5.88901 4.28307L5.2156 4.97951L4.98061 4.03965C4.96701 3.98516 4.88952 3.98516 4.87588 4.03965L4.6409 4.97951L3.96748 4.28307C3.92842 4.24268 3.86134 4.28142 3.87678 4.33545L4.14305 5.26618Z" fill="#F5F5F5"/>
<path d="M5.71369 6.83765C5.5127 7.03853 5.2351 7.16277 4.92847 7.16277C4.62184 7.16277 4.34425 7.03853 4.14326 6.83765L3.87702 7.76837C3.86159 7.82241 3.92867 7.86111 3.96772 7.82075L4.64114 7.12431L4.87612 8.06417C4.88973 8.11867 4.96721 8.11867 4.98086 8.06417L5.21584 7.12431L5.88926 7.82075C5.92831 7.86115 5.99539 7.82241 5.97996 7.76837L5.71369 6.83765Z" fill="#F5F5F5"/>
<path d="M6.94064 5.99942L6.00077 5.76443L6.69722 5.09102C6.73761 5.05196 6.69887 4.98488 6.64484 5.00031L5.71411 5.26655C5.91499 5.46754 6.03924 5.74513 6.03924 6.05176C6.03924 6.3584 5.91499 6.63599 5.71411 6.83698L6.64484 7.10321C6.69887 7.11865 6.73758 7.05157 6.69722 7.01251L6.00077 6.3391L6.94064 6.10411C6.99517 6.09054 6.99517 6.01309 6.94064 5.99942Z" fill="#F5F5F5"/>
<path d="M4.92823 6.93654C5.41674 6.93654 5.81276 6.54052 5.81276 6.05201C5.81276 5.5635 5.41674 5.16748 4.92823 5.16748C4.43972 5.16748 4.0437 5.5635 4.0437 6.05201C4.0437 6.54052 4.43972 6.93654 4.92823 6.93654Z" fill="#F5F5F5"/>
</g>
<defs>
<clipPath id="clip0_2484_13345">
<rect width="18" height="18" fill="white" transform="translate(0.428467)"/>
</clipPath>
</defs>
</svg>
