<svg width="19" height="18" viewBox="0 0 19 18" fill="none" xmlns="http://www.w3.org/2000/svg">
<g clip-path="url(#clip0_330_7770)">
<path d="M18.1181 14.8966H0.738826C0.567439 14.8966 0.428467 14.7577 0.428467 14.5863V3.41387C0.428467 3.24249 0.567439 3.10352 0.738826 3.10352H18.1181C18.2895 3.10352 18.4285 3.24249 18.4285 3.41387V14.5863C18.4284 14.7577 18.2895 14.8966 18.1181 14.8966Z" fill="#F5F5F5"/>
<path d="M18.4284 4.01072H0.428467V3.41387C0.428467 3.24249 0.567439 3.10352 0.738826 3.10352H18.1181C18.2895 3.10352 18.4285 3.24249 18.4285 3.41387L18.4284 4.01072Z" fill="#FF4B55"/>
<path d="M18.4284 6.73218H0.428467V7.63935H18.4284V6.73218Z" fill="#FF4B55"/>
<path d="M18.4284 4.91772H0.428467V5.82489H18.4284V4.91772Z" fill="#FF4B55"/>
<path d="M18.4284 9.45359H0.738826C0.567439 9.45359 0.428467 9.31462 0.428467 9.14323V8.54639H18.4284V9.45359Z" fill="#FF4B55"/>
<path d="M18.4284 12.1753H0.428467V13.0825H18.4284V12.1753Z" fill="#FF4B55"/>
<path d="M18.1181 14.8967H0.738826C0.567439 14.8967 0.428467 14.7577 0.428467 14.5863V13.9895H18.4284V14.5864C18.4284 14.7577 18.2895 14.8967 18.1181 14.8967Z" fill="#FF4B55"/>
<path d="M18.4284 10.3608H0.428467V11.268H18.4284V10.3608Z" fill="#FF4B55"/>
<path d="M8.49741 3.10352H0.738826C0.567439 3.10352 0.428467 3.24245 0.428467 3.41384V9.14324C0.428467 9.31463 0.567439 9.4536 0.738826 9.4536H8.49744C8.66883 9.4536 8.8078 9.31463 8.8078 9.14324V3.41384C8.80777 3.24245 8.66879 3.10352 8.49741 3.10352Z" fill="#41479B"/>
<path d="M1.30035 3.81591L1.36904 4.02192L1.5862 4.02357C1.61433 4.02382 1.62597 4.05968 1.60336 4.07638L1.42867 4.2054L1.4942 4.41244C1.50271 4.43923 1.47216 4.46144 1.44927 4.44506L1.27261 4.31882L1.09595 4.4451C1.07307 4.46144 1.04258 4.43926 1.05102 4.41247L1.11655 4.20544L0.941862 4.07641C0.919257 4.05968 0.930893 4.02386 0.959018 4.02361L1.17618 4.02196L1.24487 3.81594C1.25373 3.78922 1.29142 3.78922 1.30035 3.81591Z" fill="#F5F5F5"/>
<path d="M1.30011 4.89352L1.3688 5.09953L1.58596 5.10118C1.61409 5.10143 1.62572 5.13729 1.60312 5.15399L1.42843 5.28301L1.49396 5.49005C1.50246 5.51684 1.47191 5.53906 1.44903 5.52267L1.27237 5.39643L1.09571 5.52271C1.07282 5.53906 1.04234 5.51687 1.05078 5.49008L1.11631 5.28305L0.941618 5.15402C0.919013 5.13729 0.930649 5.10147 0.958774 5.10122L1.17593 5.09957L1.24463 4.89355C1.25349 4.86687 1.29118 4.86687 1.30011 4.89352Z" fill="#F5F5F5"/>
<path d="M1.30011 5.97115L1.3688 6.17717L1.58596 6.17882C1.61409 6.17907 1.62572 6.21493 1.60312 6.23163L1.42843 6.36065L1.49396 6.56768C1.50246 6.59447 1.47191 6.61669 1.44903 6.60031L1.27237 6.47406L1.09571 6.60034C1.07282 6.61669 1.04234 6.59451 1.05078 6.56772L1.11631 6.36068L0.941618 6.23166C0.919013 6.21493 0.930649 6.1791 0.958774 6.17886L1.17593 6.1772L1.24463 5.97119C1.25349 5.94451 1.29118 5.94451 1.30011 5.97115Z" fill="#F5F5F5"/>
<path d="M1.30011 7.04906L1.3688 7.25508L1.58596 7.25673C1.61409 7.25697 1.62572 7.29283 1.60312 7.30953L1.42843 7.43856L1.49396 7.64559C1.50246 7.67238 1.47191 7.6946 1.44903 7.67822L1.27237 7.55197L1.09571 7.67825C1.07282 7.6946 1.04234 7.67242 1.05078 7.64563L1.11631 7.43859L0.941618 7.30957C0.919013 7.29283 0.930649 7.25701 0.958774 7.25676L1.17593 7.25511L1.24463 7.0491C1.25349 7.02238 1.29118 7.02238 1.30011 7.04906Z" fill="#F5F5F5"/>
<path d="M1.30011 8.12672L1.3688 8.33274L1.58596 8.33439C1.61409 8.33464 1.62572 8.3705 1.60312 8.3872L1.42843 8.51622L1.49396 8.72325C1.50246 8.75004 1.47191 8.77226 1.44903 8.75588L1.27237 8.62963L1.09571 8.75591C1.07282 8.77226 1.04234 8.75008 1.05078 8.72329L1.11631 8.51625L0.941618 8.38723C0.919013 8.3705 0.930649 8.33467 0.958774 8.33443L1.17593 8.33277L1.24463 8.12676C1.25349 8.10001 1.29118 8.10001 1.30011 8.12672Z" fill="#F5F5F5"/>
<path d="M2.13653 4.34421L2.20523 4.55022L2.42239 4.55187C2.45051 4.55212 2.46215 4.58798 2.43954 4.60468L2.26485 4.7337L2.33038 4.94074C2.33889 4.96752 2.30834 4.98974 2.28545 4.97336L2.10879 4.84708L1.93213 4.97336C1.90925 4.98971 1.87877 4.96752 1.8872 4.94074L1.95273 4.7337L1.77804 4.60468C1.75544 4.58794 1.76708 4.55212 1.7952 4.55187L2.01236 4.55022L2.08105 4.34421C2.08988 4.31756 2.12764 4.31756 2.13653 4.34421Z" fill="#F5F5F5"/>
<path d="M2.13653 5.42187L2.20523 5.62788L2.42239 5.62954C2.45051 5.62978 2.46215 5.66564 2.43954 5.68234L2.26485 5.81136L2.33038 6.0184C2.33889 6.04519 2.30834 6.0674 2.28545 6.05102L2.10879 5.92474L1.93213 6.05102C1.90925 6.06737 1.87877 6.04522 1.8872 6.0184L1.95273 5.81136L1.77804 5.68234C1.75544 5.66561 1.76708 5.62978 1.7952 5.62954L2.01236 5.62788L2.08105 5.42187C2.08988 5.39518 2.12764 5.39518 2.13653 5.42187Z" fill="#F5F5F5"/>
<path d="M2.13653 6.49975L2.20523 6.70576L2.42239 6.70742C2.45051 6.70766 2.46215 6.74352 2.43954 6.76022L2.26485 6.88924L2.33038 7.09628C2.33889 7.12307 2.30834 7.14529 2.28545 7.1289L2.10879 7.00262L1.93213 7.1289C1.90925 7.14525 1.87877 7.12307 1.8872 7.09628L1.95273 6.88924L1.77804 6.76022C1.75544 6.74349 1.76708 6.70766 1.7952 6.70742L2.01236 6.70576L2.08105 6.49975C2.08988 6.47307 2.12764 6.47307 2.13653 6.49975Z" fill="#F5F5F5"/>
<path d="M2.13653 7.57736L2.20523 7.78337L2.42239 7.78503C2.45051 7.78527 2.46215 7.82113 2.43954 7.83783L2.26485 7.96685L2.33038 8.17389C2.33889 8.20068 2.30834 8.2229 2.28545 8.20651L2.10879 8.08023L1.93213 8.20651C1.90925 8.22286 1.87877 8.20068 1.8872 8.17389L1.95273 7.96685L1.77804 7.83783C1.75544 7.8211 1.76708 7.78527 1.7952 7.78503L2.01236 7.78337L2.08105 7.57736C2.08988 7.55071 2.12764 7.55071 2.13653 7.57736Z" fill="#F5F5F5"/>
<path d="M2.97296 3.81591L3.04165 4.02193L3.25881 4.02358C3.28694 4.02382 3.29857 4.05968 3.27597 4.07638L3.10128 4.20541L3.16681 4.41244C3.17532 4.43923 3.14477 4.46145 3.12188 4.44507L2.94522 4.31878L2.76856 4.44507C2.74567 4.46141 2.71519 4.43923 2.72363 4.41244L2.78916 4.20541L2.61447 4.07638C2.59186 4.05965 2.6035 4.02382 2.63163 4.02358L2.84879 4.02193L2.91748 3.81591C2.92634 3.78923 2.96406 3.78923 2.97296 3.81591Z" fill="#F5F5F5"/>
<path d="M2.97296 4.89352L3.04165 5.09954L3.25881 5.10119C3.28694 5.10143 3.29857 5.13729 3.27597 5.15399L3.10128 5.28302L3.16681 5.49005C3.17532 5.51684 3.14477 5.53906 3.12188 5.52268L2.94522 5.3964L2.76856 5.52268C2.74567 5.53902 2.71519 5.51684 2.72363 5.49005L2.78916 5.28302L2.61447 5.15399C2.59186 5.13726 2.6035 5.10143 2.63163 5.10119L2.84879 5.09954L2.91748 4.89352C2.92634 4.86687 2.96406 4.86687 2.97296 4.89352Z" fill="#F5F5F5"/>
<path d="M2.97296 5.97116L3.04165 6.17717L3.25881 6.17883C3.28694 6.17907 3.29857 6.21493 3.27597 6.23163L3.10128 6.36065L3.16681 6.56769C3.17532 6.59448 3.14477 6.6167 3.12188 6.60031L2.94522 6.47403L2.76856 6.60031C2.74567 6.61666 2.71519 6.59448 2.72363 6.56769L2.78916 6.36065L2.61447 6.23163C2.59186 6.2149 2.6035 6.17907 2.63163 6.17883L2.84879 6.17717L2.91748 5.97116C2.92634 5.94451 2.96406 5.94451 2.97296 5.97116Z" fill="#F5F5F5"/>
<path d="M2.97296 7.04907L3.04165 7.25508L3.25881 7.25673C3.28694 7.25698 3.29857 7.29284 3.27597 7.30954L3.10128 7.43856L3.16681 7.64559C3.17532 7.67238 3.14477 7.6946 3.12188 7.67822L2.94522 7.55194L2.76856 7.67822C2.74567 7.69457 2.71519 7.67238 2.72363 7.64559L2.78916 7.43856L2.61447 7.30954C2.59186 7.2928 2.6035 7.25698 2.63163 7.25673L2.84879 7.25508L2.91748 7.04907C2.92634 7.02238 2.96406 7.02238 2.97296 7.04907Z" fill="#F5F5F5"/>
<path d="M2.97296 8.12673L3.04165 8.33274L3.25881 8.3344C3.28694 8.33464 3.29857 8.3705 3.27597 8.3872L3.10128 8.51622L3.16681 8.72326C3.17532 8.75005 3.14477 8.77227 3.12188 8.75588L2.94522 8.6296L2.76856 8.75588C2.74567 8.77223 2.71519 8.75005 2.72363 8.72326L2.78916 8.51622L2.61447 8.3872C2.59186 8.37047 2.6035 8.33464 2.63163 8.3344L2.84879 8.33274L2.91748 8.12673C2.92634 8.10001 2.96406 8.10001 2.97296 8.12673Z" fill="#F5F5F5"/>
<path d="M3.80963 4.34421L3.87832 4.55022L4.09548 4.55187C4.12361 4.55212 4.13524 4.58798 4.11264 4.60468L3.93795 4.7337L4.00348 4.94074C4.01199 4.96752 3.98144 4.98974 3.95855 4.97336L3.78189 4.84708L3.60523 4.97336C3.58234 4.98971 3.55186 4.96752 3.5603 4.94074L3.62583 4.7337L3.45114 4.60468C3.42853 4.58794 3.44017 4.55212 3.4683 4.55187L3.68546 4.55022L3.75415 4.34421C3.76297 4.31756 3.80073 4.31756 3.80963 4.34421Z" fill="#F5F5F5"/>
<path d="M3.80963 5.42187L3.87832 5.62788L4.09548 5.62954C4.12361 5.62978 4.13524 5.66564 4.11264 5.68234L3.93795 5.81136L4.00348 6.0184C4.01199 6.04519 3.98144 6.0674 3.95855 6.05102L3.78189 5.92474L3.60523 6.05102C3.58234 6.06737 3.55186 6.04522 3.5603 6.0184L3.62583 5.81136L3.45114 5.68234C3.42853 5.66561 3.44017 5.62978 3.4683 5.62954L3.68546 5.62788L3.75415 5.42187C3.76297 5.39518 3.80073 5.39518 3.80963 5.42187Z" fill="#F5F5F5"/>
<path d="M3.80963 6.49975L3.87832 6.70576L4.09548 6.70742C4.12361 6.70766 4.13524 6.74352 4.11264 6.76022L3.93795 6.88924L4.00348 7.09628C4.01199 7.12307 3.98144 7.14529 3.95855 7.1289L3.78189 7.00262L3.60523 7.1289C3.58234 7.14525 3.55186 7.12307 3.5603 7.09628L3.62583 6.88924L3.45114 6.76022C3.42853 6.74349 3.44017 6.70766 3.4683 6.70742L3.68546 6.70576L3.75415 6.49975C3.76297 6.47307 3.80073 6.47307 3.80963 6.49975Z" fill="#F5F5F5"/>
<path d="M3.80963 7.57736L3.87832 7.78337L4.09548 7.78503C4.12361 7.78527 4.13524 7.82113 4.11264 7.83783L3.93795 7.96685L4.00348 8.17389C4.01199 8.20068 3.98144 8.2229 3.95855 8.20651L3.78189 8.08023L3.60523 8.20651C3.58234 8.22286 3.55186 8.20068 3.5603 8.17389L3.62583 7.96685L3.45114 7.83783C3.42853 7.8211 3.44017 7.78527 3.4683 7.78503L3.68546 7.78337L3.75415 7.57736C3.76297 7.55071 3.80073 7.55071 3.80963 7.57736Z" fill="#F5F5F5"/>
<path d="M4.64609 3.81591L4.71478 4.02193L4.93194 4.02358C4.96007 4.02382 4.9717 4.05968 4.9491 4.07638L4.77441 4.20541L4.83994 4.41244C4.84845 4.43923 4.8179 4.46145 4.79501 4.44507L4.61831 4.31878L4.44165 4.44507C4.41877 4.46141 4.38829 4.43923 4.39673 4.41244L4.46226 4.20541L4.28757 4.07638C4.26496 4.05965 4.2766 4.02382 4.30472 4.02358L4.52188 4.02193L4.59058 3.81591C4.59947 3.78923 4.63719 3.78923 4.64609 3.81591Z" fill="#F5F5F5"/>
<path d="M4.64609 4.89352L4.71478 5.09954L4.93194 5.10119C4.96007 5.10143 4.9717 5.13729 4.9491 5.15399L4.77441 5.28302L4.83994 5.49005C4.84845 5.51684 4.8179 5.53906 4.79501 5.52268L4.61831 5.3964L4.44165 5.52268C4.41877 5.53902 4.38829 5.51684 4.39673 5.49005L4.46226 5.28302L4.28757 5.15399C4.26496 5.13726 4.2766 5.10143 4.30472 5.10119L4.52188 5.09954L4.59058 4.89352C4.59947 4.86687 4.63719 4.86687 4.64609 4.89352Z" fill="#F5F5F5"/>
<path d="M4.64609 5.97116L4.71478 6.17717L4.93194 6.17883C4.96007 6.17907 4.9717 6.21493 4.9491 6.23163L4.77441 6.36065L4.83994 6.56769C4.84845 6.59448 4.8179 6.6167 4.79501 6.60031L4.61831 6.47403L4.44165 6.60031C4.41877 6.61666 4.38829 6.59448 4.39673 6.56769L4.46226 6.36065L4.28757 6.23163C4.26496 6.2149 4.2766 6.17907 4.30472 6.17883L4.52188 6.17717L4.59058 5.97116C4.59947 5.94451 4.63719 5.94451 4.64609 5.97116Z" fill="#F5F5F5"/>
<path d="M4.64609 7.04907L4.71478 7.25508L4.93194 7.25673C4.96007 7.25698 4.9717 7.29284 4.9491 7.30954L4.77441 7.43856L4.83994 7.64559C4.84845 7.67238 4.8179 7.6946 4.79501 7.67822L4.61831 7.55194L4.44165 7.67822C4.41877 7.69457 4.38829 7.67238 4.39673 7.64559L4.46226 7.43856L4.28757 7.30954C4.26496 7.2928 4.2766 7.25698 4.30472 7.25673L4.52188 7.25508L4.59058 7.04907C4.59947 7.02238 4.63719 7.02238 4.64609 7.04907Z" fill="#F5F5F5"/>
<path d="M4.64609 8.12673L4.71478 8.33274L4.93194 8.3344C4.96007 8.33464 4.9717 8.3705 4.9491 8.3872L4.77441 8.51622L4.83994 8.72326C4.84845 8.75005 4.8179 8.77227 4.79501 8.75588L4.61831 8.6296L4.44165 8.75588C4.41877 8.77223 4.38829 8.75005 4.39673 8.72326L4.46226 8.51622L4.28757 8.3872C4.26496 8.37047 4.2766 8.33464 4.30472 8.3344L4.52188 8.33274L4.59058 8.12673C4.59947 8.10001 4.63719 8.10001 4.64609 8.12673Z" fill="#F5F5F5"/>
<path d="M5.48248 4.34421L5.55117 4.55022L5.76833 4.55187C5.79646 4.55212 5.8081 4.58798 5.78549 4.60468L5.6108 4.7337L5.67633 4.94074C5.68484 4.96752 5.65429 4.98974 5.6314 4.97336L5.45474 4.84708L5.27808 4.97336C5.25519 4.98971 5.22471 4.96752 5.23315 4.94074L5.29868 4.7337L5.12399 4.60468C5.10139 4.58794 5.11302 4.55212 5.14115 4.55187L5.35831 4.55022L5.427 4.34421C5.4359 4.31756 5.47358 4.31756 5.48248 4.34421Z" fill="#F5F5F5"/>
<path d="M5.48248 5.42187L5.55117 5.62788L5.76833 5.62954C5.79646 5.62978 5.8081 5.66564 5.78549 5.68234L5.6108 5.81136L5.67633 6.0184C5.68484 6.04519 5.65429 6.0674 5.6314 6.05102L5.45474 5.92474L5.27808 6.05102C5.25519 6.06737 5.22471 6.04522 5.23315 6.0184L5.29868 5.81136L5.12399 5.68234C5.10139 5.66561 5.11302 5.62978 5.14115 5.62954L5.35831 5.62788L5.427 5.42187C5.4359 5.39518 5.47358 5.39518 5.48248 5.42187Z" fill="#F5F5F5"/>
<path d="M5.48248 6.49975L5.55117 6.70576L5.76833 6.70742C5.79646 6.70766 5.8081 6.74352 5.78549 6.76022L5.6108 6.88924L5.67633 7.09628C5.68484 7.12307 5.65429 7.14529 5.6314 7.1289L5.45474 7.00262L5.27808 7.1289C5.25519 7.14525 5.22471 7.12307 5.23315 7.09628L5.29868 6.88924L5.12399 6.76022C5.10139 6.74349 5.11302 6.70766 5.14115 6.70742L5.35831 6.70576L5.427 6.49975C5.4359 6.47307 5.47358 6.47307 5.48248 6.49975Z" fill="#F5F5F5"/>
<path d="M5.48248 7.57736L5.55117 7.78337L5.76833 7.78503C5.79646 7.78527 5.8081 7.82113 5.78549 7.83783L5.6108 7.96685L5.67633 8.17389C5.68484 8.20068 5.65429 8.2229 5.6314 8.20651L5.45474 8.08023L5.27808 8.20651C5.25519 8.22286 5.22471 8.20068 5.23315 8.17389L5.29868 7.96685L5.12399 7.83783C5.10139 7.8211 5.11302 7.78527 5.14115 7.78503L5.35831 7.78337L5.427 7.57736C5.4359 7.55071 5.47358 7.55071 5.48248 7.57736Z" fill="#F5F5F5"/>
<path d="M6.31915 3.81591L6.38784 4.02193L6.605 4.02358C6.63313 4.02382 6.64477 4.05968 6.62216 4.07638L6.44747 4.20541L6.513 4.41244C6.52151 4.43923 6.49096 4.46145 6.46807 4.44507L6.29141 4.31878L6.11475 4.44507C6.09186 4.46141 6.06138 4.43923 6.06982 4.41244L6.13535 4.20541L5.96066 4.07638C5.93806 4.05965 5.94969 4.02382 5.97782 4.02358L6.19498 4.02193L6.26367 3.81591C6.2725 3.78923 6.31025 3.78923 6.31915 3.81591Z" fill="#F5F5F5"/>
<path d="M6.31915 4.89352L6.38784 5.09954L6.605 5.10119C6.63313 5.10143 6.64477 5.13729 6.62216 5.15399L6.44747 5.28302L6.513 5.49005C6.52151 5.51684 6.49096 5.53906 6.46807 5.52268L6.29141 5.3964L6.11475 5.52268C6.09186 5.53902 6.06138 5.51684 6.06982 5.49005L6.13535 5.28302L5.96066 5.15399C5.93806 5.13726 5.94969 5.10143 5.97782 5.10119L6.19498 5.09954L6.26367 4.89352C6.2725 4.86687 6.31025 4.86687 6.31915 4.89352Z" fill="#F5F5F5"/>
<path d="M6.31915 5.97116L6.38784 6.17717L6.605 6.17883C6.63313 6.17907 6.64477 6.21493 6.62216 6.23163L6.44747 6.36065L6.513 6.56769C6.52151 6.59448 6.49096 6.6167 6.46807 6.60031L6.29141 6.47403L6.11475 6.60031C6.09186 6.61666 6.06138 6.59448 6.06982 6.56769L6.13535 6.36065L5.96066 6.23163C5.93806 6.2149 5.94969 6.17907 5.97782 6.17883L6.19498 6.17717L6.26367 5.97116C6.2725 5.94451 6.31025 5.94451 6.31915 5.97116Z" fill="#F5F5F5"/>
<path d="M6.31915 7.04907L6.38784 7.25508L6.605 7.25673C6.63313 7.25698 6.64477 7.29284 6.62216 7.30954L6.44747 7.43856L6.513 7.64559C6.52151 7.67238 6.49096 7.6946 6.46807 7.67822L6.29141 7.55194L6.11475 7.67822C6.09186 7.69457 6.06138 7.67238 6.06982 7.64559L6.13535 7.43856L5.96066 7.30954C5.93806 7.2928 5.94969 7.25698 5.97782 7.25673L6.19498 7.25508L6.26367 7.04907C6.2725 7.02238 6.31025 7.02238 6.31915 7.04907Z" fill="#F5F5F5"/>
<path d="M6.31915 8.12673L6.38784 8.33274L6.605 8.3344C6.63313 8.33464 6.64477 8.3705 6.62216 8.3872L6.44747 8.51622L6.513 8.72326C6.52151 8.75005 6.49096 8.77227 6.46807 8.75588L6.29141 8.6296L6.11475 8.75588C6.09186 8.77223 6.06138 8.75005 6.06982 8.72326L6.13535 8.51622L5.96066 8.3872C5.93806 8.37047 5.94969 8.33464 5.97782 8.3344L6.19498 8.33274L6.26367 8.12673C6.2725 8.10001 6.31025 8.10001 6.31915 8.12673Z" fill="#F5F5F5"/>
<path d="M7.15557 4.34421L7.22427 4.55022L7.44143 4.55187C7.46955 4.55212 7.48119 4.58798 7.45859 4.60468L7.28389 4.7337L7.34943 4.94074C7.35793 4.96752 7.32738 4.98974 7.3045 4.97336L7.12784 4.84708L6.95118 4.97336C6.92829 4.98971 6.89781 4.96752 6.90625 4.94074L6.97178 4.7337L6.79709 4.60468C6.77448 4.58794 6.78612 4.55212 6.81424 4.55187L7.0314 4.55022L7.1001 4.34421C7.10896 4.31756 7.14671 4.31756 7.15557 4.34421Z" fill="#F5F5F5"/>
<path d="M7.15557 5.42187L7.22427 5.62788L7.44143 5.62954C7.46955 5.62978 7.48119 5.66564 7.45859 5.68234L7.28389 5.81136L7.34943 6.0184C7.35793 6.04519 7.32738 6.0674 7.3045 6.05102L7.12784 5.92474L6.95118 6.05102C6.92829 6.06737 6.89781 6.04522 6.90625 6.0184L6.97178 5.81136L6.79709 5.68234C6.77448 5.66561 6.78612 5.62978 6.81424 5.62954L7.0314 5.62788L7.1001 5.42187C7.10896 5.39518 7.14671 5.39518 7.15557 5.42187Z" fill="#F5F5F5"/>
<path d="M7.15557 6.49975L7.22427 6.70576L7.44143 6.70742C7.46955 6.70766 7.48119 6.74352 7.45859 6.76022L7.28389 6.88924L7.34943 7.09628C7.35793 7.12307 7.32738 7.14529 7.3045 7.1289L7.12784 7.00262L6.95118 7.1289C6.92829 7.14525 6.89781 7.12307 6.90625 7.09628L6.97178 6.88924L6.79709 6.76022C6.77448 6.74349 6.78612 6.70766 6.81424 6.70742L7.0314 6.70576L7.1001 6.49975C7.10896 6.47307 7.14671 6.47307 7.15557 6.49975Z" fill="#F5F5F5"/>
<path d="M7.15557 7.57736L7.22427 7.78337L7.44143 7.78503C7.46955 7.78527 7.48119 7.82113 7.45859 7.83783L7.28389 7.96685L7.34943 8.17389C7.35793 8.20068 7.32738 8.2229 7.3045 8.20651L7.12784 8.08023L6.95118 8.20651C6.92829 8.22286 6.89781 8.20068 6.90625 8.17389L6.97178 7.96685L6.79709 7.83783C6.77448 7.8211 6.78612 7.78527 6.81424 7.78503L7.0314 7.78337L7.1001 7.57736C7.10896 7.55071 7.14671 7.55071 7.15557 7.57736Z" fill="#F5F5F5"/>
<path d="M7.992 3.81591L8.0607 4.02193L8.27786 4.02358C8.30598 4.02382 8.31762 4.05968 8.29501 4.07638L8.12032 4.20541L8.18585 4.41244C8.19436 4.43923 8.16381 4.46145 8.14092 4.44507L7.96426 4.31878L7.7876 4.44507C7.76472 4.46141 7.73424 4.43923 7.74267 4.41244L7.8082 4.20541L7.63351 4.07638C7.61091 4.05965 7.62254 4.02382 7.65067 4.02358L7.86783 4.02193L7.93652 3.81591C7.94538 3.78923 7.98307 3.78923 7.992 3.81591Z" fill="#F5F5F5"/>
<path d="M7.992 4.89352L8.0607 5.09954L8.27786 5.10119C8.30598 5.10143 8.31762 5.13729 8.29501 5.15399L8.12032 5.28302L8.18585 5.49005C8.19436 5.51684 8.16381 5.53906 8.14092 5.52268L7.96426 5.3964L7.7876 5.52268C7.76472 5.53902 7.73424 5.51684 7.74267 5.49005L7.8082 5.28302L7.63351 5.15399C7.61091 5.13726 7.62254 5.10143 7.65067 5.10119L7.86783 5.09954L7.93652 4.89352C7.94538 4.86687 7.98307 4.86687 7.992 4.89352Z" fill="#F5F5F5"/>
<path d="M7.992 5.97116L8.0607 6.17717L8.27786 6.17883C8.30598 6.17907 8.31762 6.21493 8.29501 6.23163L8.12032 6.36065L8.18585 6.56769C8.19436 6.59448 8.16381 6.6167 8.14092 6.60031L7.96426 6.47403L7.7876 6.60031C7.76472 6.61666 7.73424 6.59448 7.74267 6.56769L7.8082 6.36065L7.63351 6.23163C7.61091 6.2149 7.62254 6.17907 7.65067 6.17883L7.86783 6.17717L7.93652 5.97116C7.94538 5.94451 7.98307 5.94451 7.992 5.97116Z" fill="#F5F5F5"/>
<path d="M7.992 7.04907L8.0607 7.25508L8.27786 7.25673C8.30598 7.25698 8.31762 7.29284 8.29501 7.30954L8.12032 7.43856L8.18585 7.64559C8.19436 7.67238 8.16381 7.6946 8.14092 7.67822L7.96426 7.55194L7.7876 7.67822C7.76472 7.69457 7.73424 7.67238 7.74267 7.64559L7.8082 7.43856L7.63351 7.30954C7.61091 7.2928 7.62254 7.25698 7.65067 7.25673L7.86783 7.25508L7.93652 7.04907C7.94538 7.02238 7.98307 7.02238 7.992 7.04907Z" fill="#F5F5F5"/>
<path d="M7.992 8.12673L8.0607 8.33274L8.27786 8.3344C8.30598 8.33464 8.31762 8.3705 8.29501 8.3872L8.12032 8.51622L8.18585 8.72326C8.19436 8.75005 8.16381 8.77227 8.14092 8.75588L7.96426 8.6296L7.7876 8.75588C7.76472 8.77223 7.73424 8.75005 7.74267 8.72326L7.8082 8.51622L7.63351 8.3872C7.61091 8.37047 7.62254 8.33464 7.65067 8.3344L7.86783 8.33274L7.93652 8.12673C7.94538 8.10001 7.98307 8.10001 7.992 8.12673Z" fill="#F5F5F5"/>
</g>
<defs>
<clipPath id="clip0_330_7770">
<rect width="18" height="18" fill="white" transform="translate(0.428467)"/>
</clipPath>
</defs>
</svg>
